<?xml version="1.0" encoding="UTF-8"?>
<!-- Generator: visioncortex VTracer 0.6.4 -->
<svg version="1.1" xmlns="http://www.w3.org/2000/svg" width="400" height="400">
<path d="M0 0 C0.76 -0.01 1.53 -0.02 2.32 -0.03 C61.19 -0.63 112.48 18.91 154.79 60.24 C187.98 93.32 210.52 142.36 211.02 189.45 C211.03 190.22 211.04 190.98 211.05 191.77 C211.65 250.65 192.11 301.94 150.79 344.24 C117.7 377.43 68.66 399.97 21.57 400.48 C20.81 400.49 20.04 400.5 19.25 400.51 C-39.62 401.1 -90.91 381.57 -133.21 340.24 C-145.11 328.38 -154.86 314.79 -163.21 300.24 C-163.57 299.62 -163.93 299 -164.3 298.36 C-173.94 281.48 -180.94 263.2 -185.21 244.24 C-185.41 243.38 -185.61 242.52 -185.81 241.64 C-196.6 192.08 -187.16 136.69 -159.73 93.92 C-156.38 88.91 -152.84 84.05 -149.21 79.24 C-148.52 78.31 -147.82 77.37 -147.1 76.41 C-113.86 33.59 -65.71 8.25 -12.39 0.7 C-8.26 0.19 -4.16 0.04 0 0 Z " fill="#0B3A32" transform="translate(189.21484375,-0.23828125)"/>
<path d="M0 0 C0.76 -0.01 1.53 -0.02 2.32 -0.03 C61.19 -0.63 112.48 18.91 154.79 60.24 C187.98 93.32 210.52 142.36 211.02 189.45 C211.03 190.22 211.04 190.98 211.05 191.77 C211.65 250.65 192.11 301.94 150.79 344.24 C117.7 377.43 68.66 399.97 21.57 400.48 C20.81 400.49 20.04 400.5 19.25 400.51 C-39.62 401.1 -90.91 381.57 -133.21 340.24 C-145.11 328.38 -154.86 314.79 -163.21 300.24 C-163.57 299.62 -163.93 299 -164.3 298.36 C-173.94 281.48 -180.94 263.2 -185.21 244.24 C-185.41 243.38 -185.61 242.52 -185.81 241.64 C-188.85 227.65 -189.59 213.87 -189.59 199.61 C-189.59 198.81 -189.59 198.01 -189.6 197.18 C-189.59 186.7 -188.88 176.59 -187.21 166.24 C-185.89 167.56 -184.57 168.88 -183.21 170.24 C-183.15 168.98 -183.09 167.72 -183.03 166.43 C-179.6 133.11 -161.82 99.25 -140.21 74.24 C-139.54 73.46 -138.87 72.68 -138.18 71.88 C-135.9 69.29 -133.57 66.76 -131.21 64.24 C-130.76 63.74 -130.3 63.25 -129.82 62.74 C-103.27 34.45 -60.94 8.45 -21.37 6.07 C-19.32 6.05 -17.26 6.13 -15.21 6.24 C-15.21 7.23 -15.21 8.22 -15.21 9.24 C-15.93 9.38 -16.64 9.53 -17.38 9.68 C-59.17 18.29 -94.17 34.67 -125.21 64.24 C-125.92 64.89 -126.63 65.55 -127.36 66.22 C-148.53 86.4 -162.94 113.85 -172.21 141.24 C-172.59 142.35 -172.59 142.35 -172.98 143.48 C-188.27 189.91 -183.05 241.59 -161.83 285.27 C-152.42 303.91 -140.44 319.97 -126.21 335.24 C-125.53 335.98 -124.85 336.72 -124.14 337.48 C-93.46 369.4 -46.83 390.18 -2.64 391.62 C1.59 391.71 5.81 391.71 10.04 391.68 C10.92 391.67 11.81 391.67 12.73 391.67 C27.06 391.59 40.82 390.67 54.79 387.24 C56.11 386.92 56.11 386.92 57.46 386.6 C106.19 374.81 148.12 343.69 174.54 301.29 C182.62 287.94 188.78 274 193.79 259.24 C194.16 258.13 194.16 258.13 194.55 257 C201.39 236.23 203.91 214.02 202.79 192.24 C202.74 191.34 202.7 190.45 202.65 189.53 C199.98 141.51 179.72 98.82 146.79 64.24 C145.8 63.18 145.8 63.18 144.8 62.1 C115.47 31.32 72.41 13.76 30.79 9.24 C29.88 9.14 28.98 9.04 28.05 8.94 C19.55 8.12 11.07 8.12 2.54 8.18 C1.1 8.18 -0.34 8.19 -1.78 8.19 C-5.26 8.2 -8.74 8.22 -12.21 8.24 C-12.54 7.25 -12.87 6.26 -13.21 5.24 C-12.55 5.24 -11.89 5.24 -11.21 5.24 C-11.21 4.25 -11.21 3.26 -11.21 2.24 C-12.86 2.24 -14.51 2.24 -16.21 2.24 C-16.21 1.91 -16.21 1.58 -16.21 1.24 C-10.78 0.48 -5.48 0.06 0 0 Z " fill="#214941" transform="translate(189.21484375,-0.23828125)"/>
<path d="M0 0 C0.76 -0.01 1.53 -0.02 2.32 -0.03 C61.19 -0.63 112.48 18.91 154.79 60.24 C187.26 92.6 210.54 141.34 210.95 187.55 C210.95 188.67 210.95 188.67 210.95 189.8 C210.96 190.6 210.96 191.4 210.96 192.22 C210.97 193.9 210.97 195.57 210.97 197.25 C210.97 199.77 210.99 202.29 211.01 204.8 C211.04 214.79 210.42 224.37 208.79 234.24 C208.46 233.25 208.13 232.26 207.79 231.24 C207.13 231.24 206.47 231.24 205.79 231.24 C205.67 231.79 205.55 232.33 205.42 232.9 C193.25 288.22 164.5 335.59 116.26 366.54 C79.82 389.24 79.82 389.24 62.79 389.24 C62.79 388.58 62.79 387.92 62.79 387.24 C64.44 386.91 66.09 386.58 67.79 386.24 C67.79 385.58 67.79 384.92 67.79 384.24 C68.45 383.98 69.12 383.73 69.81 383.46 C98.95 372.24 122.85 358.6 145.79 337.24 C146.52 336.55 147.26 335.87 148.02 335.16 C169.54 314.49 184.3 287.24 193.79 259.24 C194.04 258.5 194.29 257.76 194.55 257 C201.39 236.23 203.91 214.02 202.79 192.24 C202.74 191.34 202.7 190.45 202.65 189.53 C199.98 141.51 179.72 98.82 146.79 64.24 C146.13 63.53 145.48 62.83 144.8 62.1 C115.47 31.32 72.41 13.76 30.79 9.24 C29.88 9.14 28.98 9.04 28.05 8.94 C19.55 8.12 11.07 8.12 2.54 8.18 C1.1 8.18 -0.34 8.19 -1.78 8.19 C-5.26 8.2 -8.74 8.22 -12.21 8.24 C-12.54 7.25 -12.87 6.26 -13.21 5.24 C-12.55 5.24 -11.89 5.24 -11.21 5.24 C-11.21 4.25 -11.21 3.26 -11.21 2.24 C-12.86 2.24 -14.51 2.24 -16.21 2.24 C-16.21 1.91 -16.21 1.58 -16.21 1.24 C-10.78 0.48 -5.48 0.06 0 0 Z " fill="#50BCA6" transform="translate(189.21484375,-0.23828125)"/>
<path d="M0 0 C2.9 1 3.95 1.93 5.69 4.5 C7.63 9.68 8.92 14.84 7.34 20.28 C5.03 25.28 1.98 28.51 -3 31 C-5.04 30.97 -7.08 30.9 -9.12 30.81 C-15.09 30.8 -19.28 31.22 -24 35 C-26.17 37.18 -28.18 39.42 -30.14 41.78 C-33.29 45.54 -35.83 48.21 -40.44 50 C-43.22 51.16 -45.08 52.07 -47.44 54 C-50.66 56.51 -53.98 57.69 -57.79 59.07 C-60.15 59.9 -60.15 59.9 -62 62 C-63.57 62.33 -65.16 62.59 -66.75 62.81 C-71.77 63.73 -74.21 65.54 -78 69 C-83.88 72.92 -90.93 74.99 -98 75 C-98.86 74.48 -99.72 73.95 -100.61 73.41 C-102.83 71.73 -102.83 71.73 -104.92 72.42 C-108 74.76 -110.63 77.47 -113.31 80.25 C-120 87.14 -120 87.14 -124 90 C-127.96 93.24 -128.99 97.79 -130.64 102.49 C-136.71 118.11 -149.74 133.26 -165.11 140.39 C-168.17 141.38 -170.8 141.27 -174 141 C-173.53 136.45 -172.11 134.7 -168.69 131.75 C-167.79 130.97 -166.89 130.2 -165.96 129.39 C-162.99 126.99 -159.95 124.7 -156.88 122.44 C-147.24 115.26 -141.99 109.51 -138 98 C-139.18 98.12 -140.35 98.25 -141.56 98.38 C-146.06 98.37 -148.36 96.79 -151.75 94 C-153.71 90.87 -153.41 88.63 -153 85 C-152.01 82.28 -150.68 79.83 -149.25 77.31 C-148.9 76.66 -148.55 76.01 -148.2 75.34 C-146.21 71.73 -144.25 68.63 -141 66 C-136.59 65.9 -133.67 67.4 -130.39 70.32 C-127.78 73.46 -126.41 77.2 -125 81 C-124.07 80.01 -124.07 80.01 -123.12 79 C-121 77 -121 77 -119 77 C-119 76.34 -119 75.68 -119 75 C-118.26 74.32 -117.51 73.64 -116.75 72.94 C-112.61 68.97 -110.21 63.62 -109.75 57.94 C-109.83 57.3 -109.92 56.66 -110 56 C-113.31 55 -116.3 54.9 -119.75 54.94 C-121.23 54.95 -121.23 54.95 -122.73 54.96 C-123.48 54.98 -124.23 54.99 -125 55 C-122.61 48.47 -118.46 42.9 -112.11 39.66 C-106.73 37.97 -100.79 37.83 -95.55 40.02 C-93.56 41.24 -91.78 42.48 -90 44 C-89.43 44.47 -88.86 44.94 -88.28 45.43 C-87 47 -87 47 -87.12 50.88 C-87.71 54.47 -88.99 56.95 -91 60 C-91 60.99 -91 61.98 -91 63 C-84.82 62.73 -80.82 61.98 -76 58 C-75.5 57.01 -75.5 57.01 -75 56 C-74.34 56 -73.68 56 -73 56 C-72.63 55.13 -72.63 55.13 -72.25 54.25 C-70.7 51.46 -69.62 49.88 -67 48 C-64.95 47.96 -64.95 47.96 -62.62 48.12 C-59.21 48.35 -59.21 48.35 -56.33 46.71 C-55.36 45.62 -54.41 44.51 -53.47 43.39 C-51.08 41.13 -48.17 41.36 -45 41 C-44.55 40.36 -44.09 39.72 -43.62 39.06 C-41.28 36.08 -38.71 36.17 -35.06 35.69 C-32.84 35.21 -32.84 35.21 -32.04 33.17 C-31.53 32.1 -31.53 32.1 -31 31 C-24.73 22.56 -16.54 11.72 -6.39 8.06 C-3.65 6.85 -3 6.01 -1.69 3.38 C-1.13 2.26 -0.57 1.15 0 0 Z " fill="#F7F9F9" transform="translate(355,230)"/>
<path d="M0 0 C5.91 17.74 -0.66 41.01 -4 59 C-4.12 59.67 -4.25 60.33 -4.37 61.02 C-9.69 89.7 -9.69 89.7 -15 102 C0.13 100.76 12.33 98.94 22.86 86.86 C26.54 81.84 28.28 77.27 28 71 C27.71 69.66 27.38 68.32 27 67 C23.64 66.34 20.43 65.86 17 66 C14.02 68.23 14.02 68.23 12 71 C11.01 71.33 10.02 71.66 9 72 C9.92 65.42 13.77 59.74 18.81 55.46 C22.52 53.16 25.71 52.16 30 53 C33.58 56.02 35.82 58.12 36.27 62.84 C36.61 74.6 33.66 83.87 26.08 92.96 C17.14 101.7 5.34 106.18 -7 107 C-10.75 106.62 -14.35 105.93 -18 105 C-18.26 105.76 -18.53 106.52 -18.8 107.3 C-21.41 113.15 -27.26 116.58 -33 119 C-36.08 119.93 -38.91 120.16 -42.12 120.19 C-42.99 120.2 -43.86 120.22 -44.76 120.23 C-47 120 -47 120 -49 118 C-49 117.01 -49 116.02 -49 115 C-46.86 113.48 -44.76 112.14 -42.5 110.81 C-32.27 104.68 -32.27 104.68 -26 95 C-26.89 93.36 -26.89 93.36 -28.25 91.69 C-37.15 78.22 -34.14 60.79 -31.34 45.93 C-28.05 30.26 -20.63 10.09 -6.75 0.88 C-3.44 -1.15 -3.44 -1.15 0 0 Z " fill="#F4F6F6" transform="translate(83,94)"/>
<path d="M0 0 C-0.13 8.28 -3.1 14.1 -9 20 C-10.66 20.25 -12.33 20.47 -14 20.69 C-21.36 21.98 -26.88 25.4 -31.88 30.94 C-34.8 35.15 -37.09 38.74 -36.88 43.99 C-35.76 47.82 -34.43 48.59 -31.06 50.62 C-25.11 54.27 -25.11 54.27 -24 58 C-22.94 73.96 -32.04 92.97 -42.23 105.05 C-42.81 105.69 -43.4 106.34 -44 107 C-44.63 107.71 -45.25 108.41 -45.9 109.14 C-50.42 113.97 -55.03 117.19 -61 120 C-61.77 120.39 -62.54 120.79 -63.34 121.19 C-71.96 125.2 -81.72 125.23 -90.87 122.82 C-96.86 120.52 -102.52 116.96 -105.35 111.03 C-111.64 91.32 -100 68.6 -91.16 51.3 C-85.51 40.51 -78.93 30.25 -71 21 C-71 25.04 -72.56 26.44 -74.94 29.69 C-83.95 42.36 -90.3 55.18 -95 70 C-95.33 70.99 -95.66 71.98 -96 73 C-96.88 84 -96.88 84 -93 94 C-84.12 101.52 -73.03 100.85 -62 100 C-52.07 98.17 -44.56 94.86 -38.62 86.62 C-36.14 82.67 -35.2 79.64 -35 75 C-35.8 74.64 -35.8 74.64 -36.61 74.27 C-40.71 72.32 -44.1 70.6 -47 67 C-49.79 58.64 -48.41 50.12 -44.75 42.3 C-21.27 -2.13 -21.27 -2.13 0 0 Z " fill="#F8FAF9" transform="translate(261,88)"/>
<path d="M0 0 C1.46 3.84 0.48 6.33 -0.81 10.12 C-3.77 19.38 -5.2 27.53 -5.38 37.25 C-5.4 38.11 -5.43 38.98 -5.45 39.87 C-5.47 45.41 -4.75 48.64 -1 53 C4.14 56.43 10.56 55.64 16.51 54.54 C20.7 53.3 23.44 51.72 26.69 48.81 C30.5 45.65 33.19 45.82 38.06 46.12 C43.03 46.49 43.03 46.49 47.28 44.31 C49.08 42.16 49.08 42.16 50.61 39.88 C52 38 52 38 54.75 37 C57.13 36.22 57.13 36.22 57.97 34.12 C58.73 32.09 59.41 30.08 60 28 C60.66 28 61.32 28 62 28 C62.47 35.16 61.21 42.51 56.81 48.38 C53.97 51.03 51.6 52.37 48.1 53.93 C45.8 55.1 44.08 56.52 42.12 58.19 C38.98 60.68 36.99 61.32 33 61.44 C26.91 61.71 24.04 64.7 20 69 C19.44 69.62 18.88 70.24 18.3 70.88 C13.34 76.23 8.05 79.52 0.64 80.23 C-5.93 79.93 -10.46 76.54 -15 72 C-15.5 73.18 -15.99 74.35 -16.5 75.56 C-20.22 82.94 -26.24 87.07 -33.76 90.09 C-36.69 91.28 -39.47 92.72 -42.27 94.17 C-44 95 -44 95 -47 96 C-47.72 97.64 -48.38 99.32 -49 101 C-54.17 109.48 -60.9 119.28 -71 122 C-75.36 122.31 -79.64 122.24 -84 122 C-84.81 119.81 -84.81 119.81 -85 117 C-81.18 111.7 -75.45 109.57 -69.69 106.81 C-61.52 102.72 -55.72 99.04 -51 91 C-49.94 89.37 -48.88 87.75 -47.81 86.12 C-47.39 85.43 -46.96 84.73 -46.52 84.01 C-42.1 78.17 -35.67 75.87 -29.15 73.09 C-23.87 70.73 -20.66 68.33 -18 63 C-17.83 61.55 -17.7 60.09 -17.61 58.62 C-14.24 13.21 -14.24 13.21 0 0 Z " fill="#F6F8F8" transform="translate(293,113)"/>
<path d="M0 0 C0 0.99 0 1.98 0 3 C-0.71 3.15 -1.43 3.29 -2.16 3.44 C-43.96 12.05 -78.96 28.44 -110 58 C-110.71 58.65 -111.41 59.31 -112.14 59.98 C-133.31 80.16 -147.72 107.62 -157 135 C-157.25 135.74 -157.5 136.48 -157.76 137.24 C-173.05 183.67 -167.84 235.35 -146.61 279.03 C-137.21 297.67 -125.22 313.73 -111 329 C-110.32 329.74 -109.63 330.48 -108.93 331.24 C-77.36 364.09 -34.1 379.68 10 386 C10 386.99 10 387.98 10 389 C1.8 389.26 -5.78 388.67 -13.81 387 C-14.89 386.78 -15.97 386.56 -17.08 386.33 C-43.76 380.53 -67.93 368.94 -90 353 C-90.6 352.57 -91.2 352.15 -91.82 351.71 C-131.9 323.02 -159.41 276.82 -167.9 228.57 C-169.48 218.83 -170.15 209.16 -170.1 199.3 C-170.1 198.34 -170.09 197.38 -170.09 196.39 C-170.09 193.36 -170.08 190.34 -170.06 187.31 C-170.06 185.24 -170.05 183.17 -170.05 181.1 C-170.04 176.07 -170.02 171.03 -170 166 C-170.66 165.67 -171.32 165.34 -172 165 C-172 163.35 -172 161.7 -172 160 C-170.68 161.32 -169.36 162.64 -168 164 C-167.94 162.74 -167.88 161.48 -167.81 160.19 C-164.39 126.87 -146.6 93.01 -125 68 C-124.33 67.22 -123.66 66.44 -122.97 65.64 C-120.69 63.05 -118.36 60.52 -116 58 C-115.54 57.51 -115.08 57.01 -114.61 56.5 C-87.68 27.82 -40.85 -2.11 0 0 Z " fill="#50BCA6" transform="translate(174,6)"/>
<path d="M0 0 C8.04 4.1 8.04 4.1 9.49 5.54 C11.33 5.78 13.19 5.96 15.05 6.11 C16.06 6.19 17.07 6.27 18.11 6.36 C18.9 6.42 19.68 6.48 20.49 6.54 C20.02 11.5 19.01 14.01 15.49 17.54 C13.03 19.32 10.52 21.02 8.01 22.72 C5.07 24.84 2.67 27.19 0.18 29.81 C-1.55 31.58 -3.37 33.14 -5.26 34.73 C-9.41 38.28 -13 42.25 -16.57 46.37 C-19.29 49.43 -21.78 51.82 -25.51 53.54 C-27.69 53.59 -27.69 53.59 -29.83 53.29 C-33.81 53.16 -35.58 53.92 -38.58 56.54 C-39.91 57.85 -41.22 59.19 -42.51 60.54 C-53.41 71.65 -53.41 71.65 -60.45 71.92 C-66.57 71.7 -69.99 70.13 -74.26 65.67 C-80.2 57.43 -79.49 47.16 -78.24 37.42 C-76.26 25.86 -71.52 11.34 -63.51 2.54 C-62.85 2.54 -62.19 2.54 -61.51 2.54 C-62.12 7.07 -63.31 10.94 -65.01 15.17 C-68.1 22.88 -69.31 29.18 -68.51 37.54 C-66.25 42.42 -63.36 45.21 -58.51 47.54 C-50.92 48.69 -43.38 47.32 -37.12 42.82 C-36.3 42.19 -35.48 41.56 -34.64 40.92 C-30.9 38.12 -28.56 37.16 -23.89 37.04 C-17.49 36.84 -14.76 34.06 -10.51 29.54 C-9.08 28.15 -7.64 26.75 -6.2 25.36 C-4.95 24.11 -3.72 22.84 -2.51 21.54 C-1.92 20.91 -1.33 20.27 -0.72 19.62 C0.71 17.57 0.71 17.57 0.45 14.97 C-1.13 11 -3.95 10.18 -7.69 8.51 C-12.15 6.98 -15.91 6.36 -20.51 7.54 C-23.84 9.54 -26.62 11.98 -29.51 14.54 C-31.16 15.58 -32.81 16.61 -34.51 17.54 C-32.91 13.76 -30.51 11.07 -27.76 8.04 C-26.5 6.64 -26.5 6.64 -25.22 5.2 C-17.37 -2.51 -10 -4.86 0 0 Z " fill="#F9FBFA" transform="translate(136.514404296875,227.45703125)"/>
<path d="M0 0 C1.16 -0.01 1.16 -0.01 2.34 -0.03 C61.47 -0.62 112.86 18.7 155.37 60.24 C181.05 85.83 207.72 128.18 208.62 165.43 C208.37 168.24 208.37 168.24 207.37 170.24 C206.71 170.24 206.05 170.24 205.37 170.24 C205.18 169.15 204.98 168.05 204.78 166.93 C199.12 136.98 187.4 108.86 169.37 84.24 C168.94 83.64 168.51 83.03 168.07 82.41 C139.25 42.3 93.09 15.68 44.88 6.93 C36.9 5.64 28.93 5.09 20.86 4.92 C20.01 4.9 19.16 4.88 18.28 4.86 C15.6 4.79 12.93 4.73 10.25 4.68 C8.41 4.63 6.58 4.59 4.75 4.54 C0.29 4.44 -4.17 4.34 -8.63 4.24 C-8.96 3.25 -9.29 2.26 -9.63 1.24 C-6.57 -0.29 -3.36 0.03 0 0 Z " fill="#224A43" transform="translate(188.62890625,-0.23828125)"/>
<path d="M0 0 C-0.19 0.8 -0.19 0.8 -0.39 1.61 C-2.05 9.1 -2.67 16.62 -3.26 24.26 C-5.98 58.84 -5.98 58.84 -11 71 C-11.43 72.06 -11.86 73.11 -12.3 74.2 C-13.51 77.14 -14.75 80.07 -16 83 C-17.32 83 -18.64 83 -20 83 C-22.62 77.05 -24.72 71.56 -25 65 C-25.05 64.07 -25.1 63.14 -25.16 62.18 C-25.72 43.15 -20.35 18.4 -8.25 3.31 C-5.12 0.09 -4.63 0 0 0 Z " fill="#0B3931" transform="translate(77,103)"/>
<path d="M0 0 C3 1 3 1 4.17 2.84 C9.04 14.97 8.8 28.67 3.99 40.78 C0.93 47.77 -3.08 54.36 -7.12 60.82 C-10.2 65.79 -10.2 65.79 -11.04 71.47 C-9.77 74.55 -8.07 75.66 -5.18 77.24 C14.63 84.16 42.59 78.08 62.34 73.45 C65 73 65 73 68 74 C-0.96 95.67 -0.96 95.67 -17.5 87.81 C-19.51 85.38 -19.86 84.18 -20 81 C-18.72 73.29 -15.86 66.83 -12.5 59.81 C-11.51 57.72 -10.52 55.62 -9.53 53.52 C-9.09 52.6 -8.66 51.69 -8.21 50.74 C-5 43.45 -2.91 34.75 -5.75 26.95 C-6.04 26.41 -6.33 25.87 -6.62 25.31 C-8.65 20.42 -7.68 16.91 -6 12 C-4.17 7.9 -2.15 3.94 0 0 Z " fill="#F3F6F5" transform="translate(150,22)"/>
<path d="M0 0 C0.33 2.31 0.66 4.62 1 7 C-0.65 7 -2.3 7 -4 7 C-4.33 6.34 -4.66 5.68 -5 5 C-11.32 4.75 -16.81 5.6 -22.94 7.12 C-23.86 7.35 -24.79 7.58 -25.74 7.82 C-54.43 15.09 -81.55 28.61 -104 48 C-104.79 48.68 -105.58 49.36 -106.4 50.07 C-108.97 52.34 -111.49 54.65 -114 57 C-114.94 57.87 -115.87 58.74 -116.84 59.64 C-146.98 88.32 -164.49 127.62 -172 168 C-172.99 167.67 -173.98 167.34 -175 167 C-175.23 160.87 -174.48 155.61 -172.94 149.69 C-172.71 148.82 -172.49 147.95 -172.26 147.05 C-165.89 123.16 -155.47 101.03 -141 81 C-140.58 80.41 -140.16 79.82 -139.72 79.21 C-110.27 38.24 -63.79 8.82 -13.95 0.26 C-9.3 -0.37 -4.67 -0.33 0 0 Z " fill="#20483F" transform="translate(178,2)"/>
<path d="M0 0 C0.99 0.33 1.98 0.66 3 1 C3.22 7.06 2.52 12.27 1 18.12 C0.78 18.99 0.55 19.85 0.32 20.74 C-13.74 73.28 -47.67 116.81 -94.32 144.36 C-104.88 150.42 -115.92 155.44 -127.38 159.56 C-128.07 159.81 -128.77 160.07 -129.48 160.33 C-133.09 161.56 -136.18 162.29 -140 162 C-140.33 161.01 -140.66 160.02 -141 159 C-139.85 158.63 -138.69 158.27 -137.5 157.89 C-112.09 149.56 -88.32 137.55 -68 120 C-67.22 119.33 -66.44 118.66 -65.64 117.97 C-30.37 86.92 -8.34 46.24 0 0 Z " fill="#1F473F" transform="translate(394,230)"/>
<path d="M0 0 C4.25 1.64 5.75 5.11 7.75 9.06 C11.78 21.16 7.81 33.93 2.36 44.84 C-4.21 56.52 -13.84 65.79 -26.25 71.06 C-26.91 71.06 -27.57 71.06 -28.25 71.06 C-27.67 67.69 -26.65 66.1 -24.19 63.75 C-23.56 63.14 -22.93 62.54 -22.28 61.91 C-20.29 60.1 -18.25 58.36 -16.19 56.62 C-10.94 52.12 -5.56 46.6 -4.94 39.5 C-5.02 33.27 -7.6 28.02 -11.56 23.31 C-13.25 21.06 -13.25 21.06 -13.14 18.91 C-11.92 14.99 -9.91 11.78 -7.75 8.31 C-7.13 7.29 -7.13 7.29 -6.49 6.24 C-2.72 0.08 -2.72 0.08 0 0 Z " fill="#F8FAF9" transform="translate(190.25,234.9375)"/>
<path d="M0 0 C8.04 4.1 8.04 4.1 9.49 5.54 C11.33 5.78 13.19 5.96 15.05 6.11 C16.06 6.19 17.07 6.27 18.11 6.36 C18.9 6.42 19.68 6.48 20.49 6.54 C20.02 11.5 19.01 14.01 15.49 17.54 C13.03 19.32 10.52 21.02 8.01 22.72 C5.08 24.84 2.67 27.19 0.19 29.8 C-1.6 31.63 -3.49 33.27 -5.45 34.92 C-9.33 38.24 -12.64 41.94 -15.95 45.82 C-16.46 46.39 -16.98 46.96 -17.51 47.54 C-17.84 47.54 -18.17 47.54 -18.51 47.54 C-18.51 44.57 -18.51 41.6 -18.51 38.54 C-22.14 38.54 -25.77 38.54 -29.51 38.54 C-29.51 38.21 -29.51 37.88 -29.51 37.54 C-28.46 37.56 -28.46 37.56 -27.39 37.57 C-20.74 37.36 -17.14 36.3 -12.43 31.58 C-11.8 30.91 -11.17 30.24 -10.51 29.54 C-9.08 28.15 -7.64 26.75 -6.2 25.36 C-4.95 24.11 -3.72 22.84 -2.51 21.54 C-1.92 20.91 -1.33 20.27 -0.72 19.62 C0.71 17.57 0.71 17.57 0.45 14.97 C-1.13 11 -3.95 10.18 -7.69 8.51 C-12.15 6.98 -15.91 6.36 -20.51 7.54 C-23.84 9.54 -26.62 11.98 -29.51 14.54 C-31.16 15.58 -32.81 16.61 -34.51 17.54 C-32.91 13.76 -30.51 11.07 -27.76 8.04 C-26.92 7.1 -26.08 6.17 -25.22 5.2 C-17.37 -2.51 -10 -4.86 0 0 Z " fill="#F4F7F6" transform="translate(136.514404296875,227.45703125)"/>
<path d="M0 0 C0.99 0.5 0.99 0.5 2 1 C-6.34 44.52 -39.21 85.43 -75 110 C-90.95 120.78 -115.07 137 -135 137 C-135 136.34 -135 135.68 -135 135 C-133.35 134.67 -131.7 134.34 -130 134 C-130 133.34 -130 132.68 -130 132 C-129 131.62 -129 131.62 -127.97 131.22 C-98.84 120 -74.94 106.37 -52 85 C-50.89 83.97 -50.89 83.97 -49.76 82.93 C-28.01 62.02 -14.12 35.03 -4 7 C-2.26 2.26 -2.26 2.26 0 0 Z " fill="#51BDA7" transform="translate(387,252)"/>
<path d="M0 0 C1.98 0 3.96 0 6 0 C6.33 0.99 6.66 1.98 7 3 C8.1 2.99 9.21 2.98 10.34 2.97 C14.51 2.93 18.67 2.91 22.84 2.89 C24.63 2.88 26.42 2.87 28.21 2.85 C39.35 2.74 49.99 3.12 61 5 C62.3 5.21 62.3 5.21 63.62 5.43 C96.33 11.08 127.9 26.32 153 48 C153.79 48.68 154.58 49.36 155.4 50.07 C162.22 56.08 168.62 62.52 175 69 C174.67 69.99 174.34 70.98 174 72 C171.04 70.68 169.04 69.26 166.82 66.91 C166.23 66.3 165.64 65.68 165.03 65.05 C164.09 64.07 164.09 64.07 163.12 63.06 C156.21 56.01 149.01 49.77 141 44 C140.42 43.58 139.84 43.16 139.24 42.72 C111.85 23.16 80.37 11.62 47 8 C45.65 7.85 45.65 7.85 44.27 7.7 C35.76 6.89 27.29 6.88 18.75 6.94 C17.31 6.94 15.87 6.95 14.43 6.95 C10.96 6.96 7.48 6.98 4 7 C3.67 6.01 3.34 5.02 3 4 C3.66 4 4.32 4 5 4 C5 3.01 5 2.02 5 1 C3.35 1 1.7 1 0 1 C0 0.67 0 0.34 0 0 Z " fill="#50BDA6" transform="translate(173,1)"/>
<path d="M0 0 C1.86 0.78 1.86 0.78 3.11 3.34 C3.36 4.15 3.61 4.95 3.86 5.78 C2.78 6.44 1.7 7.09 0.59 7.77 C-8.18 13.11 -16.92 18.5 -25.59 24.01 C-30.13 26.89 -34.68 29.74 -39.25 32.56 C-54.41 41.92 -68.2 51.51 -81.14 63.78 C-81.14 58.23 -76.44 54.02 -73.14 49.78 C-72.54 49 -71.94 48.22 -71.32 47.41 C-65.62 40.49 -58.5 35.74 -51.14 30.78 C-50.03 30.02 -48.92 29.25 -47.81 28.49 C-36.49 20.74 -24.71 13.66 -12.98 6.54 C-11.2 5.44 -9.45 4.32 -7.72 3.16 C-2.61 -0.27 -2.61 -0.27 0 0 Z " fill="#F3F6F5" transform="translate(330.138427734375,65.217529296875)"/>
<path d="M0 0 C4.76 0.9 7.87 3.38 11 7 C11.81 9.88 11.81 9.88 11 13 C8.41 17.42 5.87 21.07 1 23 C-3.06 22.72 -6.59 20.03 -10 18 C-10.23 18.56 -10.45 19.11 -10.69 19.69 C-12.85 23.51 -15.38 26.35 -19.5 28 C-22.79 28 -24.32 26.85 -27 25 C-28.33 24.32 -29.66 23.65 -31 23 C-29.53 18.87 -27.49 15.46 -25.06 11.81 C-24.37 10.77 -23.68 9.72 -22.97 8.64 C-21 6 -21 6 -18 4 C-17.17 4.76 -17.17 4.76 -16.32 5.53 C-15.6 6.18 -14.87 6.83 -14.12 7.5 C-13.41 8.15 -12.69 8.8 -11.95 9.47 C-10.15 11.21 -10.15 11.21 -8 11 C-6.56 9.22 -5.19 7.37 -3.88 5.5 C-3.15 4.48 -2.43 3.46 -1.68 2.41 C-1.13 1.61 -0.57 0.82 0 0 Z " fill="#52C1AA" transform="translate(126,325)"/>
<path d="M0 0 C0 0.66 0 1.32 0 2 C-1.65 2.33 -3.3 2.66 -5 3 C-3.88 6.73 -3.88 6.73 -1 9 C-4.35 9.8 -7.71 10.59 -11.06 11.38 C-11.99 11.6 -12.91 11.82 -13.86 12.05 C-27.6 15.24 -40.88 16.31 -54.93 16.21 C-57.46 16.19 -59.99 16.19 -62.52 16.19 C-64.16 16.18 -65.8 16.17 -67.43 16.17 C-68.55 16.17 -68.55 16.17 -69.68 16.16 C-74.53 16.12 -79.2 15.68 -84 15 C-82.68 14.34 -81.36 13.68 -80 13 C-80 12.34 -80 11.68 -80 11 C-76.53 10.5 -76.53 10.5 -73 10 C-73 9.34 -73 8.68 -73 8 C-71.55 7.99 -71.55 7.99 -70.08 7.97 C-47.61 7.72 -25.98 6.82 -4.23 0.58 C-2 0 -2 0 0 0 Z " fill="#3C8375" transform="translate(257,384)"/>
<path d="M0 0 C3.61 0.1 5.73 1.31 8.38 3.62 C10.68 6.14 10.98 6.81 11.31 10.38 C9.57 15.18 6.89 18.69 3 22 C0.96 22.84 0.96 22.84 -1 23 C-4.06 21.12 -4.06 21.12 -7 19 C-7.99 18.67 -8.98 18.34 -10 18 C-10.31 18.84 -10.31 18.84 -10.62 19.69 C-12.62 23.05 -14.78 24.75 -18 27 C-21.04 26.63 -23.55 25.33 -26.25 23.94 C-26.96 23.58 -27.66 23.21 -28.39 22.84 C-28.92 22.56 -29.45 22.29 -30 22 C-28.48 17.57 -26.07 13.97 -23.38 10.19 C-22.95 9.59 -22.53 8.99 -22.1 8.38 C-21.07 6.91 -20.04 5.46 -19 4 C-15.37 4.57 -13.74 5.92 -11.25 8.56 C-10.64 9.2 -10.02 9.84 -9.39 10.5 C-8.93 11 -8.47 11.49 -8 12 C-7.51 11.22 -7.01 10.44 -6.5 9.63 C-5.86 8.62 -5.22 7.61 -4.56 6.56 C-3.92 5.55 -3.29 4.54 -2.63 3.5 C-1 1 -1 1 0 0 Z " fill="#51C0AA" transform="translate(337,115)"/>
<path d="M0 0 C4.27 0.82 6.09 2.78 9 6 C11.62 9.93 11.82 11.32 11 16 C8.43 19.8 5.68 23.24 2 26 C-1.73 25.91 -4.25 24.46 -7.31 22.44 C-8.01 21.98 -8.71 21.53 -9.43 21.06 C-9.95 20.71 -10.46 20.36 -11 20 C-9.57 14.89 -7.29 10.98 -4.38 6.62 C-3.95 5.98 -3.53 5.34 -3.1 4.68 C-2.07 3.12 -1.04 1.56 0 0 Z " fill="#51C0AA" transform="translate(137,162)"/>
<path d="M0 0 C4.63 0.73 6.73 3.25 9.62 6.75 C11.47 9.76 11.71 11.57 10.91 14.97 C9.12 18.96 6.43 22.29 3 25 C0.43 25.84 0.43 25.84 -2 26 C-4.56 24.19 -4.56 24.19 -7 22 C-8.31 21.29 -9.64 20.61 -11 20 C-10.35 15.96 -8.22 12.83 -6.06 9.44 C-5.7 8.86 -5.34 8.28 -4.97 7.69 C-3.35 5.1 -1.69 2.54 0 0 Z " fill="#51C0AA" transform="translate(117,47)"/>
<path d="M0 0 C4.41 1.35 6.58 3.06 9 7 C9.74 10.31 9.46 12.14 7.86 15.12 C5.56 18.51 3.83 20.63 0.06 22.31 C-4.26 21.87 -6.76 19.77 -10 17 C-8.57 13.07 -6.71 9.75 -4.44 6.25 C-3.82 5.29 -3.2 4.32 -2.56 3.33 C-1 1 -1 1 0 0 Z " fill="#51C0A9" transform="translate(326,95)"/>
<path d="M0 0 C0.99 0.33 1.98 0.66 3 1 C2.99 2.26 2.99 3.52 2.98 4.82 C2.97 9.55 2.95 14.29 2.95 19.03 C2.94 21.07 2.93 23.11 2.92 25.15 C2.88 35.55 2.84 45.86 3.88 56.22 C4.06 60.44 3.18 63.97 2 68 C1.67 68 1.34 68 1 68 C-1.85 54.82 -2.31 41.81 -2.31 28.38 C-2.32 27.54 -2.32 26.71 -2.32 25.86 C-2.34 16.99 -2.2 8.65 0 0 Z " fill="#214B43" transform="translate(2,171)"/>
<path d="M0 0 C0.66 0.33 1.32 0.66 2 1 C1.51 1.76 1.01 2.52 0.5 3.31 C-3.46 9.7 -6 14.42 -6 22 C-5.67 22.66 -5.34 23.32 -5 24 C-3.02 23.67 -1.04 23.34 1 23 C1.66 21.02 2.32 19.04 3 17 C3.66 17.33 4.32 17.66 5 18 C5.5 24.12 4.35 27.07 1 32 C-2.13 33.56 -5.58 33.4 -9 33 C-12 31 -12 31 -13 28 C-13.71 19.93 -11.8 13.53 -6.73 7.14 C-4.54 4.7 -2.31 2.32 0 0 Z " fill="#51C0A9" transform="translate(204,31)"/>
<path d="M0 0 C3.62 0.44 3.62 0.44 5.94 2.75 C6.49 3.64 7.05 4.52 7.62 5.44 C8.62 6.92 8.62 6.92 9.62 8.44 C10.15 12.35 9.74 14.2 7.94 17.75 C5.62 20.44 5.62 20.44 2.88 21.31 C2.13 21.35 1.39 21.4 0.62 21.44 C1.29 20.12 1.94 18.8 2.62 17.44 C3.29 17.44 3.94 17.44 4.62 17.44 C4.35 15.5 4.35 15.5 3.62 13.44 C-0.02 11.01 -2.09 11.28 -6.38 11.44 C-7.33 13.16 -7.33 13.16 -7.38 15.44 C-6.14 16.64 -6.14 16.64 -4.88 17.88 C-4.05 18.72 -3.23 19.57 -2.38 20.44 C-2.56 23.25 -2.56 23.25 -3.38 25.44 C-4.04 25.44 -4.69 25.44 -5.38 25.44 C-9 21.3 -11.23 18.27 -10.88 12.5 C-9.52 6.93 -5.85 0.76 0 0 Z " fill="#55C6B1" transform="translate(286.375,225.5625)"/>
<path d="M0 0 C-0.84 3.6 -1.34 5.52 -4.38 7.73 C-5.95 8.45 -5.95 8.45 -7.56 9.19 C-8.15 9.46 -8.74 9.74 -9.35 10.02 C-11.56 11.04 -13.78 12.02 -16 13 C-17.47 13.65 -17.47 13.65 -18.96 14.32 C-25.34 17.16 -31.74 19.97 -38.14 22.75 C-42.1 24.48 -46.05 26.24 -50 28 C-48.8 23.5 -47.92 21.49 -44 19 C-41.66 17.88 -39.34 16.83 -36.96 15.82 C-36.28 15.53 -35.6 15.23 -34.9 14.93 C-32.73 13.99 -30.55 13.06 -28.38 12.12 C-25.53 10.9 -22.68 9.68 -19.84 8.45 C-18.81 8 -18.81 8 -17.77 7.55 C-13.02 5.49 -8.39 3.26 -3.81 0.84 C-2 0 -2 0 0 0 Z " fill="#50BCA6" transform="translate(276,44)"/>
<path d="M0 0 C1 3 1 3 0.39 5.02 C-1.47 7.67 -3.3 8.42 -6.25 9.73 C-7.33 10.22 -8.4 10.71 -9.51 11.21 C-10.66 11.72 -11.81 12.23 -13 12.75 C-14.17 13.28 -15.34 13.8 -16.54 14.34 C-18.91 15.41 -21.27 16.46 -23.65 17.51 C-26.63 18.84 -29.61 20.18 -32.59 21.53 C-34.18 22.25 -35.78 22.97 -37.38 23.69 C-38.1 24.01 -38.82 24.34 -39.57 24.68 C-42.69 26.06 -45.68 27.24 -49 28 C-48.12 24.13 -47.02 23.01 -43.73 20.7 C-38.01 17.25 -31.87 14.7 -25.75 12.06 C-17.03 8.28 -8.45 4.34 0 0 Z " fill="#50BCA6" transform="translate(359,193)"/>
<path d="M0 0 C0.99 0 1.98 0 3 0 C5.28 8.83 5.31 17.38 5.26 26.44 C5.25 28.99 5.26 31.55 5.27 34.1 C5.28 42.33 5.07 49.98 3 58 C2.01 58 1.02 58 0 58 C0 38.86 0 19.72 0 0 Z " fill="#315C55" transform="translate(395,171)"/>
<path d="M0 0 C2.32 0.11 2.32 0.11 5 1 C6.59 3.64 6.59 3.64 7.94 7.25 C8.18 7.9 8.43 8.55 8.68 9.22 C18.49 36.1 18.49 36.1 18 49 C17.67 49.66 17.34 50.32 17 51 C16.34 51 15.68 51 15 51 C14.8 49.91 14.61 48.81 14.41 47.69 C11.29 31.25 5.94 15.61 0 0 Z " fill="#1D453C" transform="translate(379,119)"/>
<path d="M0 0 C0.66 0 1.32 0 2 0 C3.1 1.65 3.1 1.65 4 4 C3.46 6.5 3.46 6.5 2.38 9.56 C-0.3 18.09 -1.42 26.74 -2.6 35.58 C-2.76 36.71 -2.91 37.84 -3.07 39 C-3.2 40.01 -3.33 41.02 -3.47 42.06 C-4.03 45.18 -4.93 48.03 -6 51 C-6.33 51 -6.66 51 -7 51 C-8.06 46.72 -8.12 42.57 -8.06 38.19 C-8.06 37.49 -8.05 36.8 -8.05 36.09 C-8.04 34.39 -8.02 32.7 -8 31 C-8.66 30.67 -9.32 30.34 -10 30 C-10 28.35 -10 26.7 -10 25 C-8.68 26.32 -7.36 27.64 -6 29 C-5.94 27.74 -5.88 26.48 -5.81 25.19 C-4.99 16.6 -2.31 8.29 0 0 Z " fill="#4BAD99" transform="translate(12,141)"/>
<path d="M0 0 C1.81 0.75 1.81 0.75 2.81 1.75 C2.81 3.75 2.81 5.75 2.77 7.75 C2.74 9.84 2.74 9.84 3.44 12.12 C3.56 12.66 3.69 13.2 3.81 13.75 C3.15 14.41 2.49 15.07 1.81 15.75 C0.49 15.75 -0.83 15.75 -2.19 15.75 C-3.92 17.08 -3.92 17.08 -5.56 18.88 C-10.93 23.89 -17.43 26.16 -24.19 28.75 C-24.52 28.09 -24.85 27.43 -25.19 26.75 C-24.44 26.32 -24.44 26.32 -23.67 25.88 C-21.41 24.57 -19.14 23.25 -16.88 21.94 C-15.7 21.26 -15.7 21.26 -14.49 20.57 C-13.74 20.13 -12.98 19.69 -12.2 19.23 C-11.5 18.83 -10.81 18.42 -10.09 18.01 C-8.13 16.81 -8.13 16.81 -6.56 15.09 C-5.19 13.75 -5.19 13.75 -3.19 13.75 C-4.21 12.7 -4.21 12.7 -5.25 11.62 C-7.19 8.75 -7.19 8.75 -7.19 5.62 C-5.87 1.83 -4.28 -0.49 0 0 Z " fill="#51BDA7" transform="translate(243.1875,235.25)"/>
<path d="M0 0 C0.66 0.33 1.32 0.66 2 1 C2 3.81 2 3.81 1 7 C-3.61 9.44 -7.86 10.16 -13 10.88 C-21.87 12.24 -27.51 17.1 -34 23 C-34.66 22.67 -35.32 22.34 -36 22 C-35.49 21.58 -34.98 21.15 -34.46 20.71 C-30.39 17.25 -26.75 13.76 -23.42 9.58 C-20.94 6.82 -19.07 5.18 -15.34 4.56 C-14.41 4.52 -13.47 4.48 -12.5 4.44 C-8.74 4.27 -6.3 3.8 -3 2 C-2.34 2 -1.68 2 -1 2 C-0.67 1.34 -0.34 0.68 0 0 Z " fill="#50BBA5" transform="translate(316,313)"/>
<path d="M0 0 C13.53 0 27.06 0 41 0 C41 0.99 41 1.98 41 3 C37.74 4.63 34.15 4.16 30.56 4.17 C29.31 4.17 29.31 4.17 28.03 4.18 C26.26 4.18 24.49 4.19 22.72 4.19 C20.01 4.19 17.3 4.21 14.59 4.22 C12.87 4.23 11.15 4.23 9.44 4.23 C8.62 4.24 7.81 4.24 6.97 4.25 C1.23 4.23 1.23 4.23 -1 2 C-0.67 1.34 -0.34 0.68 0 0 Z " fill="#3C665F" transform="translate(180,396)"/>
<path d="M0 0 C0 0.66 0 1.32 0 2 C-1.65 2.33 -3.3 2.66 -5 3 C-3.88 6.73 -3.88 6.73 -1 9 C-7.8 10.9 -13.92 12.41 -21 12 C-20.96 11.22 -20.92 10.43 -20.88 9.62 C-20.71 6.84 -20.71 6.84 -23 5 C-19.54 4.16 -16.08 3.33 -12.62 2.5 C-11.64 2.26 -10.66 2.02 -9.64 1.78 C-8.7 1.55 -7.76 1.33 -6.79 1.09 C-5.49 0.78 -5.49 0.78 -4.15 0.46 C-2 0 -2 0 0 0 Z " fill="#4BA794" transform="translate(257,384)"/>
<path d="M0 0 C1.57 0.47 1.57 0.47 3.16 0.95 C15.31 4.52 27.52 6.93 40 9 C40.5 10.49 40.5 10.49 41 12 C29.29 13.11 18.26 9.83 7 7 C7 6.01 7 5.02 7 4 C4.69 3.67 2.38 3.34 0 3 C0 2.01 0 1.02 0 0 Z " fill="#264B43" transform="translate(137,386)"/>
<path d="M0 0 C0.33 0.99 0.66 1.98 1 3 C1.99 3.33 2.98 3.66 4 4 C4 5.65 4 7.3 4 9 C4.99 9 5.98 9 7 9 C7 10.65 7 12.3 7 14 C6.67 13.01 6.34 12.02 6 11 C5.34 11 4.68 11 4 11 C3.73 12.22 3.46 13.43 3.19 14.69 C1.83 20.8 0.41 26.9 -1 33 C-3.48 33.5 -3.48 33.5 -6 34 C-5.73 32.72 -5.47 31.44 -5.2 30.12 C-3.14 20.11 -1.28 10.14 0 0 Z " fill="#4CAE9A" transform="translate(391,220)"/>
<path d="M0 0 C2.48 2.48 2.25 3.92 2.28 7.31 C2.27 8.03 2.27 8.75 2.27 9.49 C2.27 10.23 2.27 10.98 2.27 11.74 C2.27 13.31 2.27 14.89 2.26 16.46 C2.25 18.86 2.26 21.26 2.27 23.66 C2.27 25.19 2.27 26.71 2.27 28.24 C2.27 28.96 2.27 29.68 2.28 30.41 C2.24 34.1 2.04 36.86 0 40 C-0.66 39.67 -1.32 39.34 -2 39 C-1.88 34.09 -1.76 29.18 -1.63 24.27 C-1.58 22.6 -1.54 20.93 -1.5 19.26 C-1.44 16.85 -1.38 14.45 -1.32 12.05 C-1.3 11.3 -1.28 10.56 -1.27 9.79 C-1.17 6.4 -1.04 3.24 0 0 Z " fill="#54C7AF" transform="translate(394,184)"/>
<path d="M0 0 C0.33 0.66 0.66 1.32 1 2 C1.66 2 2.32 2 3 2 C2.84 3.22 2.67 4.43 2.5 5.69 C1.24 17.3 0.38 31.8 7 42 C7.66 42.33 8.32 42.66 9 43 C9 43.66 9 44.32 9 45 C7.25 44.94 7.25 44.94 5 44 C-2.25 34.55 -3.03 20.93 -1.54 9.5 C-1.07 6.32 -0.55 3.16 0 0 Z " fill="#E0E7E6" transform="translate(51,144)"/>
<path d="M0 0 C8.15 4.72 15.09 10.97 22 17.31 C22.56 17.83 23.13 18.34 23.71 18.87 C26.15 21.14 28.14 23.21 30 26 C27 26 27 26 24.5 23.62 C23.26 22.33 23.26 22.33 22 21 C19.28 19.07 19.28 19.07 17.23 18.21 C13.91 16.41 11.14 14.04 8.25 11.62 C7.65 11.14 7.05 10.66 6.43 10.16 C4.7 8.73 4.7 8.73 2 6 C2 4.68 2 3.36 2 2 C1.34 2 0.68 2 0 2 C0 1.34 0 0.68 0 0 Z " fill="#2D4F47" transform="translate(316,37)"/>
<path d="M0 0 C0.33 3.3 0.66 6.6 1 10 C1.66 10 2.32 10 3 10 C3.66 8.68 4.32 7.36 5 6 C5 7.65 5 9.3 5 11 C4.01 11.5 4.01 11.5 3 12 C3.02 12.99 3.05 13.97 3.07 14.99 C3.09 16.27 3.11 17.55 3.12 18.88 C3.15 20.15 3.17 21.43 3.2 22.74 C3 26 3 26 1 28 C0.3 29.32 -0.37 30.65 -1 32 C-1.06 31.37 -1.11 30.74 -1.17 30.09 C-1.42 27.21 -1.68 24.32 -1.94 21.44 C-2.02 20.45 -2.11 19.46 -2.2 18.44 C-2.58 14.23 -2.96 10.07 -3.65 5.91 C-4 3 -4 3 -2.62 1.06 C-1 0 -1 0 0 0 Z " fill="#4BA996" transform="translate(393,160)"/>
<path d="M0 0 C1.48 2.73 2.39 5.19 3 8.23 C3.16 9.03 3.33 9.84 3.5 10.67 C3.66 11.5 3.83 12.33 4 13.19 C4.33 14.83 4.67 16.47 5 18.11 C5.16 18.91 5.32 19.71 5.49 20.54 C6.28 24.37 7.14 28.18 8 32 C6.68 32 5.36 32 4 32 C3.15 29.17 2.32 26.34 1.5 23.5 C1.14 22.31 1.14 22.31 0.78 21.1 C-1.32 13.79 -1.51 7.53 0 0 Z " fill="#1F473E" transform="translate(5,230)"/>
<path d="M0 0 C1.48 0.99 1.48 0.99 3 2 C3.34 4.62 3.49 7.01 3.51 9.63 C3.53 10.38 3.55 11.14 3.57 11.91 C3.62 14.32 3.65 16.72 3.69 19.12 C3.72 20.75 3.76 22.38 3.79 24.01 C3.88 28.01 3.94 32 4 36 C2.51 36.5 2.51 36.5 1 37 C-0.24 29.34 -0.11 21.74 -0.06 14 C-0.06 12.64 -0.05 11.28 -0.05 9.92 C-0.04 6.61 -0.02 3.31 0 0 Z " fill="#54C6AF" transform="translate(4,187)"/>
<path d="M0 0 C0.99 0.66 1.98 1.32 3 2 C2.71 2.49 2.42 2.98 2.12 3.48 C-3.39 13.53 -6.28 24.92 -9 36 C-9.66 36 -10.32 36 -11 36 C-12.14 23.8 -5.45 10.63 0 0 Z " fill="#E5EBEA" transform="translate(63,110)"/>
<path d="M0 0 C3.56 4.08 5.89 8.36 8.25 13.19 C8.61 13.91 8.98 14.64 9.35 15.38 C12 20.73 12 20.73 12 23 C9.74 22.95 9.74 22.95 7 22 C5.44 19.58 4.31 17.48 3.19 14.88 C2.88 14.22 2.56 13.57 2.24 12.9 C0.24 8.46 -0.33 4.95 0 0 Z " fill="#254C44" transform="translate(371,96)"/>
<path d="M0 0 C-0.33 1.98 -0.66 3.96 -1 6 C-0.01 6.33 0.98 6.66 2 7 C0.68 7 -0.64 7 -2 7 C-2.33 6.34 -2.66 5.68 -3 5 C-4.91 5.03 -4.91 5.03 -6.87 5.07 C-8.54 5.09 -10.21 5.11 -11.88 5.12 C-13.14 5.15 -13.14 5.15 -14.43 5.18 C-15.23 5.18 -16.04 5.19 -16.87 5.2 C-17.61 5.21 -18.35 5.22 -19.12 5.23 C-21 5 -21 5 -23 3 C-15.38 0.14 -8.03 -0.17 0 0 Z " fill="#4CAC98" transform="translate(237,390)"/>
<path d="M0 0 C0 3 0 3 -1 5.38 C-2.05 8.12 -2.17 10.09 -2 13 C-0.68 13 0.64 13 2 13 C2 11.68 2 10.36 2 9 C2.66 9 3.32 9 4 9 C3.4 15.36 3.4 15.36 1.75 18 C0 19 0 19 -2.62 18.75 C-5 18 -5 18 -6 17 C-6.61 12.22 -6.46 8.83 -4.12 4.56 C-2 2 -2 2 0 0 Z " fill="#50BBA4" transform="translate(165,349)"/>
<path d="M0 0 C4.75 0.94 7.92 3.55 11.75 6.38 C12.45 6.87 13.14 7.37 13.86 7.88 C14.52 8.36 15.18 8.84 15.86 9.34 C16.46 9.77 17.07 10.21 17.69 10.67 C19 12 19 12 19 15 C14.57 14.46 11.94 12.83 8.38 10.19 C7.43 9.5 6.49 8.81 5.52 8.11 C3.23 6.19 1.58 4.52 0 2 C0 1.34 0 0.68 0 0 Z " fill="#153E35" transform="translate(76,354)"/>
<path d="M0 0 C0.66 0.33 1.32 0.66 2 1 C1.36 1.85 0.72 2.69 0.06 3.56 C-2.2 6.91 -2.68 9.97 -3 14 C-1.06 13.72 -1.06 13.72 1 13 C1.66 12.01 2.32 11.02 3 10 C3.36 15.43 3.36 15.43 1.81 17.88 C-0.62 19.38 -2.19 19.36 -5 19 C-7 17 -7 17 -7.19 15.12 C-6.64 8.61 -4.3 4.83 0 0 Z " fill="#51BCA6" transform="translate(43,231)"/>
<path d="M0 0 C0 4.04 -1.56 5.44 -3.94 8.69 C-11.29 18.98 -17.87 30 -22 42 C-22.99 42 -23.98 42 -25 42 C-23.61 37.43 -21.76 33.26 -19.5 29.06 C-19.16 28.42 -18.81 27.78 -18.46 27.11 C-15.79 22.24 -12.89 17.56 -9.81 12.94 C-9.41 12.33 -9.01 11.72 -8.59 11.1 C-5.94 7.2 -3.07 3.58 0 0 Z " fill="#D2DCDA" transform="translate(190,109)"/>
<path d="M0 0 C0 3 0 3 -0.94 4.81 C-2.24 7.5 -2.6 10.05 -3 13 C-1.02 12.73 -1.02 12.73 1 12 C1.33 11.01 1.66 10.02 2 9 C2.66 9 3.32 9 4 9 C3.25 15.75 3.25 15.75 1 18 C-2.06 18.19 -2.06 18.19 -5 18 C-6.55 16.45 -6.24 14.96 -6.31 12.81 C-6.27 7.15 -3.94 3.94 0 0 Z " fill="#51BDA7" transform="translate(115,104)"/>
<path d="M0 0 C0.99 0.33 1.98 0.66 3 1 C2.56 5.38 -0.37 7.78 -3.38 10.69 C-3.87 11.19 -4.37 11.68 -4.88 12.2 C-7.23 14.52 -8.82 15.94 -12 17 C-12 16.01 -12 15.02 -12 14 C-11.34 14 -10.68 14 -10 14 C-9.93 13.27 -9.86 12.55 -9.79 11.8 C-8.78 8.22 -7.13 6.73 -4.44 4.19 C-3.61 3.4 -2.78 2.61 -1.93 1.79 C-1.3 1.2 -0.66 0.61 0 0 Z " fill="#1D4A42" transform="translate(345,332)"/>
<path d="M0 0 C2.04 1.62 4.04 3.29 6 5 C6 5.66 6 6.32 6 7 C7.03 7.19 8.06 7.37 9.12 7.56 C13.77 8.89 16.66 11.83 19 16 C18.88 18.94 18.88 18.94 18 21 C11.67 14.67 5.33 8.33 -1 2 C-0.67 1.34 -0.34 0.68 0 0 Z " fill="#1C453D" transform="translate(335,55)"/>
<path d="M0 0 C3.03 2.75 4.8 5.23 5.27 9.37 C5.23 14.31 4.95 18.37 3 23 C2.67 23 2.34 23 2 23 C1.47 19.36 0.95 15.71 0.44 12.06 C0.29 11.02 0.13 9.98 -0.02 8.91 C-0.23 7.42 -0.23 7.42 -0.44 5.91 C-0.57 4.99 -0.7 4.08 -0.84 3.13 C-0.89 2.43 -0.94 1.73 -1 1 C-0.67 0.67 -0.34 0.34 0 0 Z " fill="#4FBAA4" transform="translate(90,64)"/>
<path d="M0 0 C0 3 0 3 -1 4.94 C-2.29 7.22 -2.29 7.22 -2 11 C-1.01 11 -0.02 11 1 11 C1.66 10.01 2.32 9.02 3 8 C3.36 13.41 3.36 13.41 1.81 15.94 C0 17 0 17 -2.62 16.75 C-5 16 -5 16 -6 15 C-6.56 9.29 -5.54 6.48 -2 2 C-1.34 1.34 -0.68 0.68 0 0 Z " fill="#4DB59F" transform="translate(192,146)"/>
<path d="M0 0 C0.66 0.66 1.32 1.32 2 2 C0.88 4.58 -0.25 7.17 -1.38 9.75 C-1.69 10.48 -2.01 11.21 -2.34 11.96 C-2.65 12.67 -2.95 13.38 -3.27 14.11 C-3.56 14.76 -3.84 15.41 -4.13 16.08 C-5.04 18.08 -6.01 20.04 -7 22 C-7.66 22 -8.32 22 -9 22 C-8.74 20.1 -8.47 18.21 -8.19 16.31 C-8.04 15.26 -7.89 14.2 -7.73 13.11 C-6.97 9.87 -5.97 7.68 -4 5 C-3.34 5 -2.68 5 -2 5 C-1.34 3.35 -0.68 1.7 0 0 Z " fill="#284E45" transform="translate(21,114)"/>
<path d="M0 0 C-4.95 4.62 -9.9 9.24 -15 14 C-16 10 -16 10 -14.94 7.56 C-10.95 2.29 -6.91 -1.73 0 0 Z " fill="#1D463E" transform="translate(77,47)"/>
<path d="M0 0 C-0.13 0.63 -0.27 1.26 -0.4 1.91 C-1.51 7.26 -2.4 12.56 -3 18 C-3.66 18 -4.32 18 -5 18 C-6.23 11.6 -6.23 11.6 -5.06 8.56 C-4.71 8.05 -4.36 7.53 -4 7 C-4.66 7 -5.32 7 -6 7 C-6.33 6.34 -6.66 5.68 -7 5 C-7.66 4.67 -8.32 4.34 -9 4 C-4.5 0 -4.5 0 0 0 Z " fill="#143C33" transform="translate(77,103)"/>
<path d="M0 0 C0.91 0.02 1.81 0.03 2.75 0.05 C3.73 0.06 4.71 0.07 5.72 0.08 C6.75 0.1 7.77 0.13 8.83 0.15 C9.86 0.17 10.9 0.18 11.97 0.19 C14.52 0.23 17.08 0.28 19.64 0.34 C19.97 1.33 20.3 2.32 20.64 3.34 C12.06 3.34 3.48 3.34 -5.36 3.34 C-2.36 0.34 -2.36 0.34 0 0 Z " fill="#54C7B1" transform="translate(192.360107421875,392.659423828125)"/>
<path d="M0 0 C0.33 1.32 0.66 2.64 1 4 C-0.56 4.68 -2.12 5.34 -3.69 6 C-4.56 6.37 -5.43 6.74 -6.32 7.12 C-9.06 8.02 -11.15 8.16 -14 8 C-14.33 7.01 -14.66 6.02 -15 5 C-10.05 3.35 -5.1 1.7 0 0 Z " fill="#174038" transform="translate(268,384)"/>
<path d="M0 0 C1.98 0 3.96 0 6 0 C6.33 0.99 6.66 1.98 7 3 C8.58 2.97 8.58 2.97 10.19 2.94 C13.33 2.99 15.97 3.27 19 4 C19 4.66 19 5.32 19 6 C13.95 7.04 9.13 7.1 4 7 C3.67 6.01 3.34 5.02 3 4 C3.66 4 4.32 4 5 4 C5 3.01 5 2.02 5 1 C3.35 1 1.7 1 0 1 C0 0.67 0 0.34 0 0 Z " fill="#50AE9B" transform="translate(173,1)"/>
<path d="M0 0 C0.33 0.99 0.66 1.98 1 3 C0.34 3 -0.32 3 -1 3 C-1.04 3.58 -1.08 4.15 -1.12 4.75 C-2.48 8.24 -4.78 9.27 -8 11 C-10.88 11.25 -10.88 11.25 -13 11 C-11.49 6.9 -9.04 5.46 -5.38 3.25 C-4.37 2.64 -3.37 2.02 -2.34 1.39 C-1.18 0.7 -1.18 0.7 0 0 Z " fill="#174239" transform="translate(315,359)"/>
<path d="M0 0 C0.99 0.33 1.98 0.66 3 1 C2.73 1.89 2.46 2.77 2.19 3.69 C2.13 4.78 2.06 5.87 2 7 C3.65 8.69 5.31 10.35 7 12 C6.81 14.81 6.81 14.81 6 17 C5.34 17 4.68 17 4 17 C0.74 13.27 -1.34 10.73 -1.38 5.69 C-1 2 -1 2 0 0 Z " fill="#53BEA9" transform="translate(277,234)"/>
<path d="M0 0 C0.33 0.66 0.66 1.32 1 2 C0.33 3.33 -0.33 4.67 -1 6 C-1 7.32 -1 8.64 -1 10 C0.32 9.67 1.64 9.34 3 9 C2.67 10.65 2.34 12.3 2 14 C-0.38 14.62 -0.38 14.62 -3 15 C-5 13 -5 13 -5.44 10.31 C-4.85 5.89 -2.8 3.38 0 0 Z " fill="#4BAF9A" transform="translate(246,339)"/>
<path d="M0 0 C0 3.93 -1 7.2 -2 11 C-1.01 11 -0.02 11 1 11 C1.66 9.68 2.32 8.36 3 7 C3.23 9.84 3.36 11.46 1.75 13.88 C0 15 0 15 -2.12 14.75 C-4 14 -4 14 -5 13 C-5.39 9.7 -5.69 7.11 -3.88 4.2 C-2.65 2.74 -1.33 1.37 0 0 Z " fill="#4DB49E" transform="translate(144,128)"/>
<path d="M0 0 C0.99 0.66 1.98 1.32 3 2 C3.62 5.89 3.11 7.78 1.31 11.31 C-1 14 -1 14 -3.75 14.88 C-4.49 14.92 -5.24 14.96 -6 15 C-5.34 13.68 -4.68 12.36 -4 11 C-3.34 11 -2.68 11 -2 11 C-2 9.35 -2 7.7 -2 6 C-1.01 5.67 -0.02 5.34 1 5 C0.34 3.68 -0.32 2.36 -1 1 C-0.67 0.67 -0.34 0.34 0 0 Z " fill="#51BCA7" transform="translate(293,232)"/>
<path d="M0 0 C0 0.66 0 1.32 0 2 C0.99 2.33 1.98 2.66 3 3 C-0.15 4.05 -0.93 3.99 -4.01 3.22 C-5.15 2.95 -5.15 2.95 -6.31 2.67 C-7.09 2.47 -7.88 2.27 -8.69 2.06 C-9.88 1.77 -9.88 1.77 -11.1 1.47 C-13.07 0.99 -15.04 0.49 -17 0 C-17 -0.33 -17 -0.66 -17 -1 C-10.99 -2.46 -5.66 -2.74 0 0 Z " fill="#143E35" transform="translate(253,7)"/>
<path d="M0 0 C0 3.94 -1.43 5.13 -4 8 C-6.98 9.49 -9.72 9.12 -13 9 C-14 8 -14 8 -14.06 4.94 C-14.04 3.97 -14.02 3 -14 2 C-13.34 1.67 -12.68 1.34 -12 1 C-11.67 2.32 -11.34 3.64 -11 5 C-9.54 4.94 -8.08 4.85 -6.62 4.75 C-5.81 4.7 -5 4.66 -4.16 4.61 C-1.81 4.21 -1.81 4.21 -0.71 1.95 C-0.48 1.31 -0.24 0.66 0 0 Z " fill="#4DB39D" transform="translate(144,302)"/>
<path d="M0 0 C1.43 2.86 0.6 4.93 0 8 C1.65 7.34 3.3 6.68 5 6 C4.25 10.75 4.25 10.75 2 13 C-0.62 12.62 -0.62 12.62 -3 12 C-3.37 4.62 -3.37 4.62 -1.5 1.5 C-1 1 -0.51 0.51 0 0 Z " fill="#4CB29C" transform="translate(255,149)"/>
<path d="M0 0 C0 3.51 -0.61 5.77 -2 9 C-4.44 11.44 -4.44 11.44 -7 13 C-7.99 12.67 -8.98 12.34 -10 12 C-8.52 8.55 -6.56 6.35 -3.88 3.75 C-3.15 3.04 -2.43 2.34 -1.68 1.61 C-1.13 1.08 -0.57 0.55 0 0 Z " fill="#295048" transform="translate(62,54)"/>
<path d="M0 0 C0 0.66 0 1.32 0 2 C-0.64 2.27 -1.28 2.54 -1.94 2.81 C-4.33 3.89 -4.33 3.89 -5 7 C-8.2 9.03 -10.06 10.1 -13.88 9.69 C-14.58 9.46 -15.28 9.23 -16 9 C-11.98 5.5 -5.61 0 0 0 Z " fill="#30534C" transform="translate(109,22)"/>
<path d="M0 0 C3.96 0 7.92 0 12 0 C12.33 2.31 12.66 4.62 13 7 C11.35 7 9.7 7 8 7 C7.67 6.34 7.34 5.68 7 5 C6.01 4.67 5.02 4.34 4 4 C4 3.01 4 2.02 4 1 C2.68 0.67 1.36 0.34 0 0 Z " fill="#4E9D8D" transform="translate(166,2)"/>
<path d="M0 0 C1.18 0.93 2.34 1.87 3.5 2.81 C4.15 3.33 4.8 3.86 5.47 4.39 C7 6 7 6 7 9 C6.34 9.66 5.68 10.32 5 11 C3.82 9.91 2.66 8.8 1.5 7.69 C0.85 7.07 0.2 6.46 -0.47 5.82 C-2 4 -2 4 -2 1 C-1.34 0.67 -0.68 0.34 0 0 Z " fill="#2C514A" transform="translate(54,332)"/>
<path d="M0 0 C0.66 0.33 1.32 0.66 2 1 C1.28 2.23 1.28 2.23 0.54 3.48 C-0.09 4.56 -0.72 5.64 -1.38 6.75 C-2 7.82 -2.63 8.88 -3.27 9.98 C-4.6 12.3 -5.85 14.6 -7 17 C-9.2 12.95 -9.2 12.95 -9 10 C-6.4 6.26 -3.3 3.14 0 0 Z " fill="#4BAF9B" transform="translate(204,31)"/>
<path d="M0 0 C3.04 3.33 3.38 5.61 3.31 10.06 C3.31 11.11 3.3 12.15 3.3 13.22 C3 16 3 16 1 19 C0.64 16.02 0.29 13.04 -0.06 10.06 C-0.17 9.21 -0.27 8.36 -0.38 7.49 C-0.47 6.68 -0.56 5.87 -0.66 5.04 C-0.75 4.29 -0.84 3.54 -0.93 2.77 C-0.95 2.18 -0.98 1.6 -1 1 C-0.67 0.67 -0.34 0.34 0 0 Z " fill="#51BDA6" transform="translate(86,209)"/>
<path d="M0 0 C-8.28 2.49 -16.45 4.67 -25 6 C-25.33 5.01 -25.66 4.02 -26 3 C-22.23 2.3 -18.46 1.62 -14.69 0.94 C-13.62 0.74 -12.54 0.54 -11.44 0.33 C-9.9 0.06 -9.9 0.06 -8.32 -0.22 C-7.38 -0.4 -6.43 -0.57 -5.45 -0.75 C-3 -1 -3 -1 0 0 Z " fill="#CDD8D7" transform="translate(218,96)"/>
<path d="M0 0 C0.33 0 0.66 0 1 0 C2.17 4.84 2.93 9.73 1 14.44 C0.67 14.95 0.34 15.47 0 16 C-0.66 15.67 -1.32 15.34 -2 15 C-2.22 9.56 -2.1 5.13 0 0 Z " fill="#50BFA8" transform="translate(394,208)"/>
<path d="M0 0 C0.69 1.81 0.69 1.81 1 4 C-1.22 7.47 -5.33 8.55 -9 10 C-7.53 4.5 -7.53 4.5 -5.06 2.19 C-3 1 -3 1 0 0 Z " fill="#4DB5A0" transform="translate(235,62)"/>
<path d="M0 0 C1.71 1.63 2.93 2.87 4 5 C4.66 5 5.32 5 6 5 C6.33 4.01 6.66 3.02 7 2 C7.33 2.99 7.66 3.98 8 5 C7.5 5.43 7.01 5.87 6.5 6.31 C4.67 8 4.67 8 5 11 C4.01 11.33 3.02 11.66 2 12 C-0.6 8.1 -0.15 4.53 0 0 Z " fill="#4CB69F" transform="translate(191,51)"/>
<path d="M0 0 C0 1.32 0 2.64 0 4 C-3.96 4 -7.92 4 -12 4 C-11.67 3.01 -11.34 2.02 -11 1 C-7.51 -0.48 -3.73 -0.07 0 0 Z " fill="#174137" transform="translate(234,394)"/>
<path d="M0 0 C4.62 0.66 9.24 1.32 14 2 C14 2.33 14 2.66 14 3 C12.19 3.18 12.19 3.18 10.35 3.37 C8.78 3.54 7.2 3.71 5.62 3.88 C4.83 3.95 4.04 4.03 3.22 4.11 C-1.36 4.46 -1.36 4.46 -5 7 C-8.12 7.12 -8.12 7.12 -11 7 C-9.68 6.34 -8.36 5.68 -7 5 C-7 4.34 -7 3.68 -7 3 C-3.53 2.5 -3.53 2.5 0 2 C0 1.34 0 0.68 0 0 Z " fill="#50C2A9" transform="translate(184,392)"/>
<path d="M0 0 C1.48 0.25 2.96 0.53 4.44 0.81 C5.67 1.04 5.67 1.04 6.93 1.27 C7.62 1.51 8.3 1.75 9 2 C9.33 2.99 9.66 3.98 10 5 C5.16 6.51 1.74 5.37 -3 4 C-2.34 3.67 -1.68 3.34 -1 3 C-0.67 2.01 -0.34 1.02 0 0 Z " fill="#4BB29E" transform="translate(150,386)"/>
<path d="M0 0 C0.98 0.01 1.95 0.02 2.96 0.03 C3.69 0.04 4.43 0.05 5.19 0.06 C5.19 1.05 5.19 2.04 5.19 3.06 C-0.09 3.06 -5.37 3.06 -10.81 3.06 C-10.81 2.4 -10.81 1.74 -10.81 1.06 C-7.14 0.21 -3.77 -0.05 0 0 Z " fill="#053028" transform="translate(215.8125,395.9375)"/>
<path d="M0 0 C0.66 0.33 1.32 0.66 2 1 C1.29 1.62 1.29 1.62 0.56 2.25 C-1.15 3.85 -1.15 3.85 -1.31 5.88 C-2.29 8.89 -4.04 9.9 -6.56 11.75 C-7.39 12.36 -8.22 12.98 -9.07 13.61 C-9.7 14.07 -10.34 14.53 -11 15 C-11 10.67 -8.34 8.78 -5.5 5.81 C-4.98 5.25 -4.45 4.69 -3.91 4.12 C-2.61 2.74 -1.31 1.37 0 0 Z " fill="#DCE5E3" transform="translate(114,230)"/>
<path d="M0 0 C2.91 5.23 3.22 10.06 3 16 C2.67 16.66 2.34 17.32 2 18 C1.34 18 0.68 18 0 18 C-1.21 12.39 -1.33 6.72 -1 1 C-0.67 0.67 -0.34 0.34 0 0 Z " fill="#264A42" transform="translate(394,152)"/>
<path d="M0 0 C-0.33 0.99 -0.66 1.98 -1 3 C-4.49 4.48 -8.27 4.07 -12 4 C-12 3.01 -12 2.02 -12 1 C-3.96 -1.28 -3.96 -1.28 0 0 Z " fill="#183F36" transform="translate(253,391)"/>
<path d="M0 0 C0.33 0 0.66 0 1 0 C1.11 0.8 1.22 1.59 1.33 2.41 C2.51 10.59 2.51 10.59 6 18 C6.66 18.33 7.32 18.66 8 19 C8 19.66 8 20.32 8 21 C6.25 20.94 6.25 20.94 4 20 C-0.62 13.26 -1.46 8.11 0 0 Z " fill="#CCD5D4" transform="translate(52,168)"/>
<path d="M0 0 C0.33 0.99 0.66 1.98 1 3 C-0.43 5.26 -0.43 5.26 -2.44 7.69 C-3.1 8.5 -3.75 9.3 -4.43 10.14 C-5.21 11.06 -5.21 11.06 -6 12 C-6.33 11.34 -6.66 10.68 -7 10 C-7.66 10 -8.32 10 -9 10 C-7.61 6.64 -6.08 4.93 -3 3 C-2.34 3 -1.68 3 -1 3 C-0.67 2.01 -0.34 1.02 0 0 Z " fill="#264B42" transform="translate(363,313)"/>
<path d="M0 0 C1.32 0.33 2.64 0.66 4 1 C4 6.28 4 11.56 4 17 C2.45 13.89 1.58 11.79 0.88 8.5 C0.71 7.75 0.54 6.99 0.37 6.22 C0 4 0 4 0 0 Z " fill="#103A30" transform="translate(390,147)"/>
<path d="M0 0 C2.88 -0.19 2.88 -0.19 6 0 C6.66 0.99 7.32 1.98 8 3 C7.67 3.99 7.34 4.98 7 6 C7.99 6.33 8.98 6.66 10 7 C7.36 7 4.72 7 2 7 C2.04 6.22 2.08 5.43 2.12 4.62 C2.29 1.84 2.29 1.84 0 0 Z " fill="#357D6E" transform="translate(234,389)"/>
<path d="M0 0 C2.31 0 4.62 0 7 0 C7 0.99 7 1.98 7 3 C5.47 4.39 5.47 4.39 3.5 5.69 C2.53 6.34 2.53 6.34 1.53 7.01 C0.77 7.5 0.77 7.5 0 8 C-0.33 7.34 -0.66 6.68 -1 6 C-0.01 5.34 0.98 4.68 2 4 C0.68 4 -0.64 4 -2 4 C-1.34 2.68 -0.68 1.36 0 0 Z " fill="#4FBAA2" transform="translate(133,295)"/>
<path d="M0 0 C0.33 0 0.66 0 1 0 C1.19 1.79 1.38 3.58 1.56 5.38 C1.67 6.37 1.77 7.37 1.88 8.4 C2 11 2 11 1 13 C0.01 13 -0.98 13 -2 13 C-2.05 11.58 -2.09 10.17 -2.12 8.75 C-2.15 7.96 -2.17 7.17 -2.2 6.36 C-1.98 3.79 -1.29 2.21 0 0 Z " fill="#1C453D" transform="translate(397,216)"/>
<path d="M0 0 C0.33 0 0.66 0 1 0 C0.67 2.31 0.34 4.62 0 7 C0.66 7 1.32 7 2 7 C1.67 8.65 1.34 10.3 1 12 C0.34 12 -0.32 12 -1 12 C-1.33 12.99 -1.66 13.98 -2 15 C-2.66 15 -3.32 15 -4 15 C-2.93 9.89 -1.77 4.93 0 0 Z " fill="#2D5249" transform="translate(12,129)"/>
<path d="M0 0 C10.56 -0.37 10.56 -0.37 15 2 C15 2.33 15 2.66 15 3 C9.72 3 4.44 3 -1 3 C-0.67 2.01 -0.34 1.02 0 0 Z " fill="#042F28" transform="translate(180,396)"/>
<path d="M0 0 C0.22 1.62 0.43 3.25 0.62 4.88 C0.74 5.78 0.86 6.68 0.98 7.62 C0.98 8.4 0.99 9.19 1 10 C0.34 10.66 -0.32 11.32 -1 12 C-1.66 13.32 -2.32 14.64 -3 16 C-3 11.05 -3 6.1 -3 1 C-1 0 -1 0 0 0 Z " fill="#4DB8A2" transform="translate(395,176)"/>
<path d="M0 0 C0.99 0 1.98 0 3 0 C4.4 2.8 4.25 4.9 4 8 C2.56 9.88 2.56 9.88 1 11 C0.67 11 0.34 11 0 11 C0 7.37 0 3.74 0 0 Z " fill="#3A645C" transform="translate(395,171)"/>
<path d="M0 0 C0.66 1.98 1.32 3.96 2 6 C-1 8 -1 8 -3.69 7.62 C-4.45 7.42 -5.21 7.21 -6 7 C-5.34 6.67 -4.68 6.34 -4 6 C-4.33 4.68 -4.66 3.36 -5 2 C-2 0 -2 0 0 0 Z " fill="#52C3AC" transform="translate(200,56)"/>
<path d="M0 0 C-1 3 -1 3 -2.78 4.17 C-3.49 4.5 -4.2 4.84 -4.94 5.19 C-6 5.7 -6 5.7 -7.09 6.23 C-9 7 -9 7 -11 7 C-10.67 6.01 -10.34 5.02 -10 4 C-7.94 3.31 -7.94 3.31 -6 3 C-6 2.01 -6 1.02 -6 0 C-3.51 -1.25 -2.59 -0.78 0 0 Z " fill="#15413A" transform="translate(115,21)"/>
<path d="M0 0 C3.95 0.55 7.35 1.39 11 3 C10.01 3.99 9.02 4.98 8 6 C5.69 5.34 3.38 4.68 1 4 C0.67 2.68 0.34 1.36 0 0 Z " fill="#1B433A" transform="translate(121,381)"/>
<path d="M0 0 C4.1 0.52 5.96 2.65 8.75 5.56 C9.95 6.8 9.95 6.8 11.17 8.07 C11.78 8.7 12.38 9.34 13 10 C12.34 10.66 11.68 11.32 11 12 C9.33 10.33 7.67 8.67 6 7 C5.24 6.28 4.47 5.56 3.69 4.81 C2 3 2 3 2 1 C1.34 0.67 0.68 0.34 0 0 Z " fill="#465E59" transform="translate(333,52)"/>
<path d="M0 0 C0.56 0.29 1.11 0.58 1.69 0.88 C4 2.07 4 2.07 6.62 2.81 C9 4 9 4 10.31 6.62 C10.65 7.8 10.65 7.8 11 9 C7.26 9 6.55 8.07 3.81 5.62 C3.1 5 2.38 4.37 1.64 3.73 C0 2 0 2 0 0 Z " fill="#0D3D34" transform="translate(324,46)"/>
<path d="M0 0 C-5.3 5.75 -5.3 5.75 -9 6 C-9.66 5.67 -10.32 5.34 -11 5 C-11 4.34 -11 3.68 -11 3 C-7.28 0.16 -4.63 -0.32 0 0 Z " fill="#164138" transform="translate(98,31)"/>
<path d="M0 0 C1.46 0.45 2.92 0.91 4.38 1.38 C5.19 1.63 6 1.89 6.84 2.15 C9 3 9 3 11 5 C8.75 6.12 8.75 6.12 6 7 C3.69 6.12 3.69 6.12 2 5 C2 4.01 2 3.02 2 2 C1.34 2 0.68 2 0 2 C0 1.34 0 0.68 0 0 Z " fill="#2D5149" transform="translate(276,15)"/>
<path d="M0 0 C0 0.99 0 1.98 0 3 C-5.34 4.34 -8.84 3.51 -14 2 C-14 1.67 -14 1.34 -14 1 C-9.33 -0.21 -4.79 -0.09 0 0 Z " fill="#224840" transform="translate(170,3)"/>
<path d="M0 0 C4.39 0.51 6.84 3.13 10 6 C10 6.33 10 6.66 10 7 C7.25 7.31 7.25 7.31 4 7 C1.62 4.62 1.62 4.62 0 2 C0 1.34 0 0.68 0 0 Z " fill="#113E35" transform="translate(76,354)"/>
<path d="M0 0 C0.66 0 1.32 0 2 0 C1.4 6.4 1.4 6.4 -0.31 9 C-2 10 -2 10 -4.19 9.69 C-4.79 9.46 -5.38 9.23 -6 9 C-5.34 8.67 -4.68 8.34 -4 8 C-4 7.01 -4 6.02 -4 5 C-2.68 4.67 -1.36 4.34 0 4 C0 2.68 0 1.36 0 0 Z " fill="#49AA96" transform="translate(167,358)"/>
<path d="M0 0 C0.33 2.97 0.66 5.94 1 9 C0.01 9.66 -0.98 10.32 -2 11 C-2 8.03 -2 5.06 -2 2 C-5.63 2 -9.26 2 -13 2 C-13 1.67 -13 1.34 -13 1 C-11.21 0.83 -9.42 0.67 -7.62 0.5 C-6.63 0.41 -5.63 0.31 -4.6 0.22 C-2 0 -2 0 0 0 Z " fill="#BCC9C5" transform="translate(120,264)"/>
<path d="M0 0 C2.13 3.19 2.5 5.27 3 9 C1.68 9 0.36 9 -1 9 C-1.33 6.36 -1.66 3.72 -2 1 C-1.34 0.67 -0.68 0.34 0 0 Z " fill="#174037" transform="translate(10,253)"/>
<path d="M0 0 C1.32 0.33 2.64 0.66 4 1 C4.33 2.65 4.66 4.3 5 6 C3.35 5.67 1.7 5.34 0 5 C-0.33 5.99 -0.66 6.98 -1 8 C-1.62 5.69 -1.62 5.69 -2 3 C-1.34 2.01 -0.68 1.02 0 0 Z " fill="#3C9584" transform="translate(238,237)"/>
<path d="M0 0 C0.66 0 1.32 0 2 0 C1.53 4.15 1.01 6.99 -2 10 C-2.99 10 -3.98 10 -5 10 C-3.86 6.13 -2.77 3 0 0 Z " fill="#E0E7E6" transform="translate(73,230)"/>
<path d="M0 0 C4.16 -0.08 7.95 0.02 12 1 C9.04 2.67 6.63 3.33 3.25 3.62 C2.45 3.7 1.65 3.77 0.83 3.85 C0.22 3.9 -0.38 3.95 -1 4 C-0.67 2.68 -0.34 1.36 0 0 Z " fill="#123A32" transform="translate(152,5)"/>
<path d="M0 0 C2 2 2 2 2.2 5.04 C2.17 6.22 2.15 7.41 2.12 8.62 C2.11 9.81 2.09 11 2.07 12.23 C2.05 13.14 2.02 14.06 2 15 C1.01 14.34 0.02 13.68 -1 13 C-1.33 10.98 -1.33 10.98 -1.25 8.62 C-1.23 7.85 -1.22 7.08 -1.2 6.29 C-1.01 4.09 -0.6 2.12 0 0 Z " fill="#042E27" transform="translate(397,206)"/>
<path d="M0 0 C-0.42 1.65 -0.86 3.29 -1.31 4.94 C-1.56 5.85 -1.8 6.77 -2.05 7.71 C-2.36 8.47 -2.68 9.22 -3 10 C-3.99 10.33 -4.98 10.66 -6 11 C-5.91 9.54 -5.8 8.08 -5.69 6.62 C-5.63 5.81 -5.57 5 -5.51 4.16 C-4.78 1.07 -3.18 0 0 0 Z " fill="#0D3931" transform="translate(18,125)"/>
<path d="M0 0 C2.96 2.81 5.44 5.18 7 9 C6.01 9.5 6.01 9.5 5 10 C5 9.34 5 8.68 5 8 C3.35 7.67 1.7 7.34 0 7 C-1.12 2.25 -1.12 2.25 0 0 Z " fill="#2D5249" transform="translate(354,72)"/>
<path d="M0 0 C3.63 0.33 7.26 0.66 11 1 C11.33 1.99 11.66 2.98 12 4 C9.69 4 7.38 4 5 4 C5 3.34 5 2.68 5 2 C3.02 2 1.04 2 -1 2 C-0.67 1.34 -0.34 0.68 0 0 Z " fill="#07342B" transform="translate(166,394)"/>
<path d="M0 0 C1.65 0 3.3 0 5 0 C5.66 3.3 6.32 6.6 7 10 C3.66 7.01 1.85 4.07 0 0 Z " fill="#123F36" transform="translate(365,93)"/>
<path d="M0 0 C0.66 0.33 1.32 0.66 2 1 C2.25 7.62 2.25 7.62 0 11 C-3 9 -3 9 -4 7 C-3.29 6.38 -3.29 6.38 -2.56 5.75 C-0.84 3.82 -0.43 2.52 0 0 Z " fill="#4DB7A1" transform="translate(207,48)"/>
<path d="M0 0 C0.6 0.21 1.2 0.41 1.81 0.62 C1.81 1.62 1.81 2.6 1.81 3.62 C2.47 3.62 3.13 3.62 3.81 3.62 C4.14 4.62 4.47 5.61 4.81 6.62 C1.42 6.62 0.75 6.1 -1.88 4.12 C-2.5 3.66 -3.12 3.2 -3.76 2.72 C-4.23 2.36 -4.7 2 -5.19 1.62 C-2.19 -0.38 -2.19 -0.38 0 0 Z " fill="#134037" transform="translate(314.1875,35.375)"/>
<path d="M0 0 C2.35 0.6 4.69 1.27 7 2 C7.33 2.66 7.66 3.32 8 4 C7.67 4.66 7.34 5.32 7 6 C7.66 6.33 8.32 6.66 9 7 C4.68 7 3.07 4.87 0 2 C0 1.34 0 0.68 0 0 Z " fill="#2C4F47" transform="translate(69,350)"/>
<path d="M0 0 C0.99 0.33 1.98 0.66 3 1 C2.65 4.26 1.98 5.02 -0.56 7.25 C-1.77 8.12 -1.77 8.12 -3 9 C-3.33 8.01 -3.66 7.02 -4 6 C-2.06 2.81 -2.06 2.81 0 0 Z " fill="#30544C" transform="translate(345,332)"/>
<path d="M0 0 C1.32 0 2.64 0 4 0 C3.55 1.46 3.09 2.92 2.62 4.38 C2.37 5.19 2.11 6 1.85 6.84 C1 9 1 9 -1 11 C-1.03 9.54 -1.05 8.08 -1.06 6.62 C-1.07 5.81 -1.09 5 -1.1 4.16 C-1 2 -1 2 0 0 Z " fill="#33544C" transform="translate(381,276)"/>
<path d="M0 0 C0.99 0.33 1.98 0.66 3 1 C3.12 6.75 3.12 6.75 2 9 C1.01 8.67 0.02 8.34 -1 8 C-1.12 2.25 -1.12 2.25 0 0 Z " fill="#20453E" transform="translate(2,171)"/>
<path d="M0 0 C0 0.66 0 1.32 0 2 C-0.58 2.25 -1.16 2.5 -1.75 2.75 C-4.3 4.17 -6.02 5.88 -8 8 C-8.99 7.01 -9.98 6.02 -11 5 C-7.73 2.33 -4.35 0 0 0 Z " fill="#2D5049" transform="translate(124,15)"/>
<path d="M0 0 C1.98 0 3.96 0 6 0 C6 0.99 6 1.98 6 3 C2.79 4.61 -0.44 4.06 -4 4 C-3.01 3.67 -2.02 3.34 -1 3 C-0.67 2.01 -0.34 1.02 0 0 Z " fill="#56C8B2" transform="translate(305,319)"/>
<path d="M0 0 C0.66 0 1.32 0 2 0 C1.55 1.63 1.09 3.25 0.62 4.88 C0.37 5.78 0.11 6.68 -0.15 7.62 C-1 10 -1 10 -3 12 C-3.66 12 -4.32 12 -5 12 C-3.69 7.77 -2.06 3.93 0 0 Z " fill="#E1E9E8" transform="translate(170,139)"/>
<path d="M0 0 C1.65 0.45 3.29 0.91 4.94 1.38 C5.85 1.63 6.77 1.89 7.71 2.15 C10 3 10 3 11 5 C10.67 5.66 10.34 6.32 10 7 C9.01 7 8.02 7 7 7 C7 6.01 7 5.02 7 4 C4.69 3.67 2.38 3.34 0 3 C0 2.01 0 1.02 0 0 Z " fill="#18433B" transform="translate(137,386)"/>
<path d="M0 0 C0.69 2.06 0.69 2.06 1 4 C-1.64 4 -4.28 4 -7 4 C-6.69 2.06 -6.69 2.06 -6 0 C-3 -1 -3 -1 0 0 Z " fill="#1C463F" transform="translate(337,156)"/>
<path d="M0 0 C0.33 0 0.66 0 1 0 C0.67 4.29 0.34 8.58 0 13 C-0.66 13 -1.32 13 -2 13 C-3.2 7.55 -2.91 4.78 0 0 Z " fill="#244942" transform="translate(74,108)"/>
<path d="M0 0 C3.52 -0.08 6.62 -0.04 10 1 C10 1.66 10 2.32 10 3 C10.66 3 11.32 3 12 3 C12 3.66 12 4.32 12 5 C7.61 4.34 4.02 2.81 0 1 C0 0.67 0 0.34 0 0 Z " fill="#0A3930" transform="translate(266,14)"/>
<path d="M0 0 C2.57 3.85 1.83 5.59 1 10 C-0.32 9.34 -1.64 8.68 -3 8 C-1.12 2.25 -1.12 2.25 0 0 Z " fill="#254B43" transform="translate(393,242)"/>
<path d="M0 0 C0.66 0.66 1.32 1.32 2 2 C1.5 2.35 1.01 2.7 0.5 3.06 C-1.73 5.94 -1.2 8.47 -1 12 C-1.66 12 -2.32 12 -3 12 C-4.02 7.63 -4.17 5 -2 1 C-1.34 0.67 -0.68 0.34 0 0 Z " fill="#184138" transform="translate(227,123)"/>
<path d="M0 0 C0.66 0 1.32 0 2 0 C2.12 2.38 2.12 2.38 2 5 C1.34 5.66 0.68 6.32 0 7 C-0.7 8.32 -1.37 9.65 -2 11 C-3.15 7.45 -3.09 6.2 -1.56 2.69 C-1.05 1.8 -0.53 0.91 0 0 Z " fill="#1E463E" transform="translate(141,84)"/>
<path d="M0 0 C2.04 1.62 4.04 3.29 6 5 C6 5.66 6 6.32 6 7 C6.99 7.33 7.98 7.66 9 8 C9 8.66 9 9.32 9 10 C5.79 8.62 3.95 7.08 1.75 4.38 C1.23 3.74 0.71 3.11 0.17 2.46 C-0.21 1.98 -0.6 1.5 -1 1 C-0.67 0.67 -0.34 0.34 0 0 Z " fill="#0D4138" transform="translate(335,55)"/>
<path d="M0 0 C0 0.99 0 1.98 0 3 C-4.46 3.5 -4.46 3.5 -9 4 C-8.67 3.01 -8.34 2.02 -8 1 C-5.07 0.02 -3.04 -0.08 0 0 Z " fill="#53C3AB" transform="translate(174,6)"/>
<path d="M0 0 C2.64 0 5.28 0 8 0 C8 0.99 8 1.98 8 3 C5.36 3 2.72 3 0 3 C0 2.01 0 1.02 0 0 Z " fill="#54C6AF" transform="translate(176,392)"/>
<path d="M0 0 C0.33 0.66 0.66 1.32 1 2 C1.99 2.33 2.98 2.66 4 3 C1.69 4.32 -0.62 5.64 -3 7 C-3.33 5.68 -3.66 4.36 -4 3 C-2.68 2.01 -1.36 1.02 0 0 Z " fill="#2F524C" transform="translate(301,368)"/>
<path d="M0 0 C0.99 0 1.98 0 3 0 C3.66 1.98 4.32 3.96 5 6 C3.68 6.33 2.36 6.66 1 7 C0.67 4.69 0.34 2.38 0 0 Z " fill="#164038" transform="translate(15,273)"/>
<path d="M0 0 C0.66 0.33 1.32 0.66 2 1 C1.04 2.3 1.04 2.3 0.06 3.62 C-1.98 6.96 -2.63 9.16 -3 13 C-3.99 12.01 -4.98 11.02 -6 10 C-4.63 6 -2.74 3.2 0 0 Z " fill="#49A994" transform="translate(43,231)"/>
<path d="M0 0 C0.99 0.33 1.98 0.66 3 1 C2.67 3.31 2.34 5.62 2 8 C1.01 8 0.02 8 -1 8 C-1.04 5.67 -1.04 3.33 -1 1 C-0.67 0.67 -0.34 0.34 0 0 Z " fill="#153C34" transform="translate(6,151)"/>
<path d="M0 0 C0.99 0.33 1.98 0.66 3 1 C1.02 3.31 -0.96 5.62 -3 8 C-3.33 6.68 -3.66 5.36 -4 4 C-2.06 1.75 -2.06 1.75 0 0 Z " fill="#0B3D33" transform="translate(65,53)"/>
<path d="M0 0 C1.65 0 3.3 0 5 0 C5 0.66 5 1.32 5 2 C1.7 3.32 -1.6 4.64 -5 6 C-4.34 4.68 -3.68 3.36 -3 2 C-2.01 2 -1.02 2 0 2 C0 1.34 0 0.68 0 0 Z " fill="#09382F" transform="translate(124,15)"/>
<path d="M0 0 C0 0.99 0 1.98 0 3 C-6.05 3.2 -6.05 3.2 -8 3 C-8.66 2.34 -9.32 1.68 -10 1 C-6.53 -0.16 -3.64 -0.07 0 0 Z " fill="#55C6AF" transform="translate(224,392)"/>
<path d="M0 0 C0.66 0.66 1.32 1.32 2 2 C-0.64 2.33 -3.28 2.66 -6 3 C-6.33 2.01 -6.66 1.02 -7 0 C-4.29 -1.35 -2.87 -0.79 0 0 Z " fill="#214941" transform="translate(260,389)"/>
<path d="M0 0 C0.84 0.77 0.84 0.77 1.69 1.56 C0.7 2.55 -0.29 3.54 -1.31 4.56 C-3.33 3.26 -5.33 1.92 -7.31 0.56 C-7.31 0.23 -7.31 -0.1 -7.31 -0.44 C-2.88 -1.79 -2.88 -1.79 0 0 Z " fill="#2D534A" transform="translate(88.3125,361.4375)"/>
<path d="M0 0 C0.33 0 0.66 0 1 0 C1 1.98 1 3.96 1 6 C0.34 6 -0.32 6 -1 6 C-2.63 7.46 -2.63 7.46 -4 9 C-4.66 8.67 -5.32 8.34 -6 8 C-5.02 6.66 -4.04 5.33 -3.06 4 C-2.24 2.89 -2.24 2.89 -1.41 1.75 C-0.94 1.17 -0.48 0.6 0 0 Z " fill="#0E3C34" transform="translate(364,308)"/>
<path d="M0 0 C1 3 1 3 0.25 5.12 C-1 7 -1 7 -4 8 C-4.33 6.35 -4.66 4.7 -5 3 C-3.35 2.01 -1.7 1.02 0 0 Z " fill="#4EB5A0" transform="translate(359,193)"/>
<path d="M0 0 C2.97 0.5 2.97 0.5 6 1 C6.33 2.65 6.66 4.3 7 6 C5.19 5.81 5.19 5.81 3 5 C1.25 2.44 1.25 2.44 0 0 Z " fill="#194239" transform="translate(356,80)"/>
<path d="M0 0 C-0.66 1.98 -1.32 3.96 -2 6 C-2.6 5.81 -3.2 5.63 -3.81 5.44 C-6.16 4.78 -6.16 4.78 -9 6 C-9.33 5.34 -9.66 4.68 -10 4 C-8.71 3.33 -7.42 2.66 -6.12 2 C-5.41 1.63 -4.69 1.26 -3.95 0.88 C-2 0 -2 0 0 0 Z " fill="#4DB49D" transform="translate(276,44)"/>
<path d="M0 0 C-0.33 1.32 -0.66 2.64 -1 4 C-3.02 3.4 -5.02 2.73 -7 2 C-7.33 1.34 -7.66 0.68 -8 0 C-4.71 -1.1 -3.29 -0.8 0 0 Z " fill="#1A443C" transform="translate(291,21)"/>
<path d="M0 0 C-1.45 3.83 -3.43 5.12 -7 7 C-7 6.01 -7 5.02 -7 4 C-6.34 4 -5.68 4 -5 4 C-5 3.01 -5 2.02 -5 1 C-3 0 -3 0 0 0 Z " fill="#33544D" transform="translate(340,342)"/>
<path d="M0 0 C0.99 0.33 1.98 0.66 3 1 C3 3.31 3 5.62 3 8 C2.01 8 1.02 8 0 8 C-0.98 4.95 -0.98 3.05 0 0 Z " fill="#183F35" transform="translate(393,236)"/>
<path d="M0 0 C0.99 0.33 1.98 0.66 3 1 C3 3.31 3 5.62 3 8 C2.01 8 1.02 8 0 8 C0 5.36 0 2.72 0 0 Z " fill="#53C6AE" transform="translate(5,176)"/>
<path d="M0 0 C1.06 3.18 1.05 3.96 0 7 C-0.99 8.49 -0.99 8.49 -2 10 C-2.66 10 -3.32 10 -4 10 C-3.43 6.04 -2.19 3.33 0 0 Z " fill="#E6EEED" transform="translate(96,156)"/>
<path d="M0 0 C1.65 0 3.3 0 5 0 C5.33 0.99 5.66 1.98 6 3 C4.62 4.5 4.62 4.5 3 6 C2.34 6 1.68 6 1 6 C0.67 4.02 0.34 2.04 0 0 Z " fill="#08332B" transform="translate(336,153)"/>
<path d="M0 0 C0.33 0.99 0.66 1.98 1 3 C0.53 3.78 0.05 4.57 -0.44 5.38 C-2.15 8.25 -2.28 9.73 -2 13 C-2.99 12.34 -3.98 11.68 -5 11 C-4.55 9.54 -4.09 8.08 -3.62 6.62 C-3.37 5.81 -3.11 5 -2.85 4.16 C-2 2 -2 2 0 0 Z " fill="#153E36" transform="translate(65,113)"/>
<path d="M0 0 C0.74 0.08 1.49 0.17 2.25 0.25 C2.58 0.91 2.91 1.57 3.25 2.25 C1.25 4.25 1.25 4.25 -0.7 4.45 C-2.71 4.38 -4.73 4.32 -6.75 4.25 C-3.43 0.31 -3.43 0.31 0 0 Z " fill="#49AD98" transform="translate(226.75,4.75)"/>
<path d="M0 0 C2.97 0.33 5.94 0.66 9 1 C5.56 3.3 3.06 3.54 -1 4 C-0.67 2.68 -0.34 1.36 0 0 Z " fill="#345951" transform="translate(235,3)"/>
<path d="M0 0 C0.33 0.66 0.66 1.32 1 2 C1.66 2 2.32 2 3 2 C3 2.66 3 3.32 3 4 C-0.46 5.49 -0.46 5.49 -4 7 C-4 6.01 -4 5.02 -4 4 C-3.34 3.67 -2.68 3.34 -2 3 C-2 2.34 -2 1.68 -2 1 C-1.34 0.67 -0.68 0.34 0 0 Z " fill="#30554D" transform="translate(286,376)"/>
<path d="M0 0 C0.33 0.66 0.66 1.32 1 2 C1.66 2.33 2.32 2.66 3 3 C2.01 4.49 2.01 4.49 1 6 C1.99 6.33 2.98 6.66 4 7 C2.02 7.66 0.04 8.32 -2 9 C-1.12 1.12 -1.12 1.12 0 0 Z " fill="#06332C" transform="translate(286,241)"/>
<path d="M0 0 C2.35 0.6 4.69 1.27 7 2 C7.33 2.66 7.66 3.32 8 4 C7.01 4.99 6.02 5.98 5 7 C3.35 4.69 1.7 2.38 0 0 Z " fill="#10413A" transform="translate(323,121)"/>
<path d="M0 0 C0.99 0.33 1.98 0.66 3 1 C2.67 3.97 2.34 6.94 2 10 C1.67 10 1.34 10 1 10 C0.67 8.35 0.34 6.7 0 5 C-0.99 4.67 -1.98 4.34 -3 4 C-2 2 -2 2 0 0 Z " fill="#144A40" transform="translate(107,110)"/>
<path d="M0 0 C0.99 0.33 1.98 0.66 3 1 C1.73 3.04 0.39 5.04 -1 7 C-1.66 7 -2.32 7 -3 7 C-3.33 5.68 -3.66 4.36 -4 3 C-2.19 1.44 -2.19 1.44 0 0 Z " fill="#0F3F36" transform="translate(37,86)"/>
<path d="M0 0 C2.97 0.49 2.97 0.49 6 1 C3.95 3.25 2.99 4 0 5 C-0.66 4.34 -1.32 3.68 -2 3 C-1.34 2.01 -0.68 1.02 0 0 Z " fill="#53C2AC" transform="translate(236,62)"/>
<path d="M0 0 C2.31 0 4.62 0 7 0 C6.67 0.99 6.34 1.98 6 3 C3.69 3 1.38 3 -1 3 C-0.67 2.01 -0.34 1.02 0 0 Z " fill="#55C6AF" transform="translate(217,5)"/>
<path d="M0 0 C2.97 0 5.94 0 9 0 C9 0.33 9 0.66 9 1 C8.22 1.12 7.43 1.25 6.62 1.38 C3.86 1.79 3.86 1.79 2 4 C-1.12 4.12 -1.12 4.12 -4 4 C-2.68 3.34 -1.36 2.68 0 2 C0 1.34 0 0.68 0 0 Z " fill="#3F746B" transform="translate(177,395)"/>
<path d="M0 0 C0.6 0.35 1.2 0.7 1.81 1.06 C1.48 2.05 1.15 3.04 0.81 4.06 C-1.17 3.4 -3.15 2.74 -5.19 2.06 C-5.19 1.4 -5.19 0.74 -5.19 0.06 C-2.19 -0.94 -2.19 -0.94 0 0 Z " fill="#31544C" transform="translate(120.1875,379.9375)"/>
<path d="M0 0 C0.99 0.33 1.98 0.66 3 1 C2.81 2.88 2.81 2.88 2 5 C-0.56 6.25 -0.56 6.25 -3 7 C-3 6.34 -3 5.68 -3 5 C-2.34 5 -1.68 5 -1 5 C-0.67 3.35 -0.34 1.7 0 0 Z " fill="#2C5248" transform="translate(317,357)"/>
<path d="M0 0 C0.33 0.99 0.66 1.98 1 3 C0.01 4.49 0.01 4.49 -1 6 C-2.32 6 -3.64 6 -5 6 C-4.75 4.12 -4.75 4.12 -4 2 C-1.94 0.75 -1.94 0.75 0 0 Z " fill="#50B9A3" transform="translate(248,348)"/>
<path d="M0 0 C0.66 0.33 1.32 0.66 2 1 C1.67 2.98 1.34 4.96 1 7 C-0.32 7.33 -1.64 7.66 -3 8 C-2.01 5.36 -1.02 2.72 0 0 Z " fill="#4AAF99" transform="translate(316,313)"/>
<path d="M0 0 C2.36 2.36 2.49 3.78 3 7 C2.01 7 1.02 7 0 7 C-0.99 5.02 -1.98 3.04 -3 1 C-2.01 0.67 -1.02 0.34 0 0 Z " fill="#2F554C" transform="translate(38,312)"/>
<path d="M0 0 C0.99 0 1.98 0 3 0 C4 3 4 3 3.06 5.19 C2.54 6.08 2.54 6.08 2 7 C0.44 5.19 0.44 5.19 -1 3 C-0.67 2.01 -0.34 1.02 0 0 Z " fill="#2B534A" transform="translate(23,290)"/>
<path d="M0 0 C2 3 2 3 2 7 C0.35 7 -1.3 7 -3 7 C-2.01 4.69 -1.02 2.38 0 0 Z " fill="#19433A" transform="translate(384,269)"/>
<path d="M0 0 C0 3.2 -0.74 5.09 -2 8 C-2.33 7.34 -2.66 6.68 -3 6 C-3.66 6 -4.32 6 -5 6 C-4.75 4.12 -4.75 4.12 -4 2 C-1.94 0.75 -1.94 0.75 0 0 Z " fill="#164139" transform="translate(200,207)"/>
<path d="M0 0 C1.3 2.6 0.81 3.76 0.19 6.56 C0.02 7.37 -0.16 8.17 -0.33 9 C-1 11 -1 11 -3 12 C-3.37 4.62 -3.37 4.62 -1.5 1.5 C-1 1 -0.51 0.51 0 0 Z " fill="#53BCA6" transform="translate(255,149)"/>
<path d="M0 0 C0.66 0.33 1.32 0.66 2 1 C2.62 4.06 2.62 4.06 3 7 C2.01 7 1.02 7 0 7 C-0.33 7.66 -0.66 8.32 -1 9 C-0.67 6.03 -0.34 3.06 0 0 Z " fill="#2D554C" transform="translate(390,140)"/>
<path d="M0 0 C1.06 1.88 1.06 1.88 2 4 C0.88 6.24 -0.39 8.07 -2 10 C-2.66 10 -3.32 10 -4 10 C-2.89 6.51 -1.74 3.23 0 0 Z " fill="#3C5B55" transform="translate(21,109)"/>
<path d="M0 0 C1.98 0.66 3.96 1.32 6 2 C5 4 5 4 3.06 4.69 C1 5 1 5 -1 4 C-0.67 2.68 -0.34 1.36 0 0 Z " fill="#2B544A" transform="translate(291,22)"/>
<path d="M0 0 C4.45 0.99 4.45 0.99 9 2 C6.85 4.15 5.97 4.73 3 5 C1.25 3.69 1.25 3.69 0 2 C0 1.34 0 0.68 0 0 Z " fill="#385A53" transform="translate(253,7)"/>
<path d="M0 0 C-0.99 0.33 -1.98 0.66 -3 1 C-3 1.99 -3 2.98 -3 4 C-4.65 3.67 -6.3 3.34 -8 3 C-8.33 2.01 -8.66 1.02 -9 0 C-5.62 -0.84 -3.33 -1.11 0 0 Z " fill="#48AC98" transform="translate(169,7)"/>
<path d="M0 0 C2.31 0 4.62 0 7 0 C7 0.99 7 1.98 7 3 C4.69 3 2.38 3 0 3 C0 2.01 0 1.02 0 0 Z " fill="#053028" transform="translate(171,2)"/>
<path d="M0 0 C1.65 0.33 3.3 0.66 5 1 C5 1.99 5 2.98 5 4 C2.36 4 -0.28 4 -3 4 C-2.01 3.67 -1.02 3.34 0 3 C0 2.01 0 1.02 0 0 Z " fill="#204940" transform="translate(159,392)"/>
<path d="M0 0 C1.5 1.38 1.5 1.38 3 3 C3 3.66 3 4.32 3 5 C1.68 5.33 0.36 5.66 -1 6 C-1.33 4.35 -1.66 2.7 -2 1 C-1.34 0.67 -0.68 0.34 0 0 Z " fill="#1C453D" transform="translate(22,285)"/>
<path d="M0 0 C1.32 0 2.64 0 4 0 C4 1.65 4 3.3 4 5 C3.34 5 2.68 5 2 5 C1.67 5.66 1.34 6.32 1 7 C0.67 4.69 0.34 2.38 0 0 Z " fill="#30534A" transform="translate(6,249)"/>
<path d="M0 0 C1.6 4 0.29 7.05 -1 11 C-1.33 11 -1.66 11 -2 11 C-2.97 5.63 -2.97 5.63 -3 3 C-1.56 1 -1.56 1 0 0 Z " fill="#53C1AB" transform="translate(12,151)"/>
<path d="M0 0 C0.33 0 0.66 0 1 0 C0.67 2.97 0.34 5.94 0 9 C-0.66 9 -1.32 9 -2 9 C-2.12 5.62 -2.12 5.62 -2 2 C-1.34 1.34 -0.68 0.68 0 0 Z " fill="#F2F5F4" transform="translate(54,137)"/>
<path d="M0 0 C2.88 -0.19 2.88 -0.19 6 0 C6.66 0.99 7.32 1.98 8 3 C6.35 3.33 4.7 3.66 3 4 C2.01 2.68 1.02 1.36 0 0 Z " fill="#4CB7A1" transform="translate(323,51)"/>
<path d="M0 0 C1.98 0 3.96 0 6 0 C5.67 1.32 5.34 2.64 5 4 C3.06 3.69 3.06 3.69 1 3 C0.67 2.01 0.34 1.02 0 0 Z " fill="#4DB7A2" transform="translate(240,388)"/>
<path d="M0 0 C0.66 0.33 1.32 0.66 2 1 C2 4 2 4 1 6 C-1.06 6.62 -1.06 6.62 -3 7 C-2.25 2.25 -2.25 2.25 0 0 Z " fill="#093028" transform="translate(229,321)"/>
<path d="M0 0 C0.33 0 0.66 0 1 0 C1 2.64 1 5.28 1 8 C0.01 8.5 0.01 8.5 -1 9 C-1.33 6.69 -1.66 4.38 -2 2 C-1.34 2 -0.68 2 0 2 C0 1.34 0 0.68 0 0 Z " fill="#53C2AB" transform="translate(9,233)"/>
<path d="M0 0 C1.88 3.77 2.22 5.03 2 9 C1.01 9.33 0.02 9.66 -1 10 C-0.67 6.7 -0.34 3.4 0 0 Z " fill="#07342C" transform="translate(5,230)"/>
<path d="M0 0 C0.33 0 0.66 0 1 0 C1 2.31 1 4.62 1 7 C0.01 7.5 0.01 7.5 -1 8 C-1.66 8.99 -2.32 9.98 -3 11 C-3 9.02 -3 7.04 -3 5 C-2.34 5 -1.68 5 -1 5 C-0.67 3.35 -0.34 1.7 0 0 Z " fill="#3F6E66" transform="translate(4,216)"/>
<path d="M0 0 C0.33 0 0.66 0 1 0 C1.29 6.05 1.29 6.05 1 8 C-0.49 8.99 -0.49 8.99 -2 10 C-2 7.36 -2 4.72 -2 2 C-1.34 2 -0.68 2 0 2 C0 1.34 0 0.68 0 0 Z " fill="#022923" transform="translate(398,179)"/>
<path d="M0 0 C1.53 4.08 0.63 7.79 0 12 C-0.33 12 -0.66 12 -1 12 C-2.67 6.72 -2.67 6.72 -3 4 C-1.62 1.5 -1.62 1.5 0 0 Z " fill="#033327" transform="translate(212,139)"/>
<path d="M0 0 C0.83 3.31 1.09 5.66 1 9 C-0.98 9.99 -0.98 9.99 -3 11 C-2.01 7.37 -1.02 3.74 0 0 Z " fill="#163F36" transform="translate(59,125)"/>
<path d="M0 0 C1.32 1.65 2.64 3.3 4 5 C3.34 6.32 2.68 7.64 2 9 C0 7 0 7 -0.12 3.38 C-0.08 2.26 -0.04 1.15 0 0 Z " fill="#385B53" transform="translate(371,96)"/>
<path d="M0 0 C1.98 0.66 3.96 1.32 6 2 C6 2.66 6 3.32 6 4 C4.35 4.33 2.7 4.66 1 5 C0.67 3.35 0.34 1.7 0 0 Z " fill="#18453C" transform="translate(112,376)"/>
<path d="M0 0 C0.99 0.66 1.98 1.32 3 2 C3 2.99 3 3.98 3 5 C1.68 5 0.36 5 -1 5 C-1.33 3.68 -1.66 2.36 -2 1 C-1.34 0.67 -0.68 0.34 0 0 Z " fill="#164037" transform="translate(35,308)"/>
<path d="M0 0 C1.98 0.66 3.96 1.32 6 2 C6 2.99 6 3.98 6 5 C5.01 5.33 4.02 5.66 3 6 C2.01 4.02 1.02 2.04 0 0 Z " fill="#294F47" transform="translate(29,304)"/>
<path d="M0 0 C0.33 0 0.66 0 1 0 C1 1.98 1 3.96 1 6 C-0.65 6.33 -2.3 6.66 -4 7 C-3.34 5.35 -2.68 3.7 -2 2 C-1.34 2 -0.68 2 0 2 C0 1.34 0 0.68 0 0 Z " fill="#4DB6A1" transform="translate(389,247)"/>
<path d="M0 0 C0.99 0 1.98 0 3 0 C2.25 7.62 2.25 7.62 0 11 C0 7.37 0 3.74 0 0 Z " fill="#04352C" transform="translate(385,240)"/>
<path d="M0 0 C0.99 0 1.98 0 3 0 C2.67 2.31 2.34 4.62 2 7 C1.34 7 0.68 7 0 7 C0 4.69 0 2.38 0 0 Z " fill="#062F27" transform="translate(395,171)"/>
<path d="M0 0 C0 2.31 0 4.62 0 7 C-0.99 6.67 -1.98 6.34 -3 6 C-3 4.35 -3 2.7 -3 1 C-1 0 -1 0 0 0 Z " fill="#54C6AD" transform="translate(9,168)"/>
<path d="M0 0 C0.99 0.33 1.98 0.66 3 1 C1.68 3.97 0.36 6.94 -1 10 C-2.31 6.06 -1.24 3.88 0 0 Z " fill="#073227" transform="translate(218,121)"/>
<path d="M0 0 C0.66 0.66 1.32 1.32 2 2 C1.01 3.98 0.02 5.96 -1 8 C-1.99 7.67 -2.98 7.34 -4 7 C-4 6.34 -4 5.68 -4 5 C-3.34 5 -2.68 5 -2 5 C-1.34 3.35 -0.68 1.7 0 0 Z " fill="#0A3931" transform="translate(21,114)"/>
<path d="M0 0 C0.99 0 1.98 0 3 0 C3.33 0.99 3.66 1.98 4 3 C3.34 3.66 2.68 4.32 2 5 C-0.12 4.62 -0.12 4.62 -2 4 C-1.34 2.68 -0.68 1.36 0 0 Z " fill="#2B5048" transform="translate(28,96)"/>
<path d="M0 0 C0.33 0.99 0.66 1.98 1 3 C0.34 3 -0.32 3 -1 3 C-1 3.66 -1 4.32 -1 5 C-2.98 5.33 -4.96 5.66 -7 6 C-2.25 1.12 -2.25 1.12 0 0 Z " fill="#395A51" transform="translate(78,41)"/>
<path d="M0 0 C1.98 0.99 3.96 1.98 6 3 C5.67 3.66 5.34 4.32 5 5 C3.35 5 1.7 5 0 5 C0 3.35 0 1.7 0 0 Z " fill="#274B44" transform="translate(307,31)"/>
<path d="M0 0 C1.68 0.29 3.34 0.62 5 1 C5 1.66 5 2.32 5 3 C3.35 3.33 1.7 3.66 0 4 C-0.33 3.01 -0.66 2.02 -1 1 C-0.67 0.67 -0.34 0.34 0 0 Z " fill="#163E35" transform="translate(138,9)"/>
<path d="M0 0 C2.12 0.38 2.12 0.38 4 1 C3.36 1.27 2.72 1.54 2.06 1.81 C-0.33 2.89 -0.33 2.89 -1 6 C-1.62 4.12 -1.62 4.12 -2 2 C-1.34 1.34 -0.68 0.68 0 0 Z " fill="#0E423A" transform="translate(132,298)"/>
<path d="M0 0 C0.33 0 0.66 0 1 0 C1 2.31 1 4.62 1 7 C0.01 7.5 0.01 7.5 -1 8 C-1.62 5.69 -1.62 5.69 -2 3 C-1.34 2.01 -0.68 1.02 0 0 Z " fill="#103932" transform="translate(373,293)"/>
<path d="M0 0 C0.66 0.33 1.32 0.66 2 1 C0.73 3.04 -0.61 5.04 -2 7 C-2.66 7 -3.32 7 -4 7 C-3.44 3.73 -2.5 2.17 0 0 Z " fill="#264A42" transform="translate(93,288)"/>
<path d="M0 0 C2.47 0.5 2.47 0.5 5 1 C4.34 2.32 3.68 3.64 3 5 C2.01 4.67 1.02 4.34 0 4 C0 2.68 0 1.36 0 0 Z " fill="#57C6B2" transform="translate(238,242)"/>
<path d="M0 0 C-0.31 1.88 -0.31 1.88 -1 4 C-2.48 4.99 -2.48 4.99 -4 6 C-4.33 4.68 -4.66 3.36 -5 2 C-2 0 -2 0 0 0 Z " fill="#164038" transform="translate(105,180)"/>
<path d="M0 0 C0.66 0 1.32 0 2 0 C2 0.66 2 1.32 2 2 C3.98 2 5.96 2 8 2 C8 2.33 8 2.66 8 3 C4.37 3.33 0.74 3.66 -3 4 C-2.01 2.68 -1.02 1.36 0 0 Z " fill="#032F25" transform="translate(325,156)"/>
<path d="M0 0 C0.66 0 1.32 0 2 0 C1.67 2.31 1.34 4.62 1 7 C0.67 6.34 0.34 5.68 0 5 C-2.02 4.35 -2.02 4.35 -4 4 C-3.01 3.67 -2.02 3.34 -1 3 C-0.67 2.01 -0.34 1.02 0 0 Z " fill="#419A88" transform="translate(117,113)"/>
<path d="M0 0 C0 2.84 -0.4 5.24 -1 8 C-2.32 7.01 -3.64 6.02 -5 5 C-3.35 3.35 -1.7 1.7 0 0 Z " fill="#4C645E" transform="translate(62,54)"/>
</svg>
